<svg width="160" height="160" viewBox="166.7 140 160 160" xmlns="http://www.w3.org/2000/svg">
  <path
    d="M326.667 220c0 44.183-35.818 80-80 80-44.183 0-80-35.817-80-80s35.817-80 80-80c44.182 0 80 35.817 80 80"
    fill="#235ef5" />
  <path
    d="M184.26 257.45v-47.558a30.983 30.983 0 012.986-10.664c2.028-4.159 4.485-6.804 5.33-7.677a28.993 28.993 0 017.466-5.546c.806-.418 4.32-2.19 9.382-2.985 2.007-.316 5.771-.875 10.238 0 6.994 1.37 11.69 5.47 13.861 7.677-1.221-.276-3.08-.358-5.33-.213-4.974.32-8.44 2.144-10.023 3.199-1.686 1.124-4.226 3.072-6.186 6.398-1.757 2.984-2.56 5.758-2.772 10.236v47.132z"
    fill="#ffffff" />
  <path
    d="M218.17 234.203a31.326 31.326 0 01-.427-5.153V211.17c.024-1.119.229-3.49 1.705-5.972 1.863-3.132 4.583-4.481 5.545-4.905 3.115-1.374 5.874-1.019 7.038-.854 1.293.184 3.828.58 6.185 2.56.373.314 2.113 1.82 3.199 4.48.592 1.45.785 2.746.853 3.624v18.783c0 2.627.556 5.23 1.679 7.605l.028.058c1.876 3.942 4.37 6.373 5.332 7.25 1.616 1.478 4.88 4.383 10.022 5.331 3.302.61 6.064.17 7.678-.213a32.572 32.572 0 01-4.692 3.413c-2.712 1.623-9.311 5.45-18.127 4.69-9.523-.817-15.76-6.475-18.128-8.957-5.052-5.288-7.243-11.1-7.89-13.86"
    fill="#ffffff" />
  <path
    d="M251.225 227.507v-18.682a26.598 26.598 0 011.919-8.53c2.336-5.724 6.052-9.035 7.677-10.451 5.635-4.905 11.519-6.292 13.01-6.61 1.262-.271 6.788-1.363 13.648.426 6.46 1.684 10.824 5.067 13.009 7.037a22.81 22.81 0 00-5.117-.213c-5.078.361-8.62 2.333-9.384 2.773-4.144 2.383-6.343 5.539-7.038 6.61-.73 1.125-2.2 3.44-2.772 6.825a16.755 16.755 0 00-.213 3.625l-.213 18.554c.009 1.184-.127 4.129-2.134 6.826-2.961 3.976-7.716 4.347-9.382 4.478-1.71.133-6.063.276-9.384-2.986-1.844-1.812-2.724-3.744-2.987-4.905a18.186 18.186 0 01-.639-4.777"
    fill="#ffffff" />
  <path
    d="M284.281 257.022V212.478c0-2.764.772-5.49 2.316-7.783.079-.116.159-.232.243-.349.756-1.057 1.93-2.661 4.052-3.839 3.512-1.948 7.07-1.309 8.317-1.066 1.239.241 4.012.82 6.398 3.198 2.304 2.298 2.928 4.96 3.2 6.186.428 1.94.213 3.412.213 4.692v43.505z"
    fill="#ffffff" />
</svg>
