<?xml version="1.0" encoding="UTF-8"?>
<svg xmlns="http://www.w3.org/2000/svg" xmlns:xlink="http://www.w3.org/1999/xlink" width="261.04pt" height="59.68pt" viewBox="0 0 261.04 59.68" version="1.1">
<defs>
<clipPath id="clip1">
  <path d="M 0 0 L 40 0 L 40 59.679688 L 0 59.679688 Z M 0 0 "/>
</clipPath>
<clipPath id="clip2">
  <path d="M 26 13 L 66 13 L 66 59.679688 L 26 59.679688 Z M 26 13 "/>
</clipPath>
<clipPath id="clip3">
  <path d="M 79 13 L 100 13 L 100 59.679688 L 79 59.679688 Z M 79 13 "/>
</clipPath>
<clipPath id="clip4">
  <path d="M 244 29 L 261.039063 29 L 261.039063 52 L 244 52 Z M 244 29 "/>
</clipPath>
</defs>
<g id="surface1">
<g clip-path="url(#clip1)" clip-rule="nonzero">
<path style=" stroke:none;fill-rule:nonzero;fill:rgb(13.299561%,36.898804%,96.099854%);fill-opacity:1;" d="M 0 59.679688 L 0 21.785156 C 0.203125 19.648438 0.769531 16.59375 2.378906 13.289063 C 3.996094 9.976563 5.953125 7.867188 6.625 7.171875 C 7.695313 6.070313 9.660156 4.261719 12.574219 2.753906 C 13.21875 2.421875 16.015625 1.007813 20.050781 0.375 C 21.648438 0.125 24.648438 -0.320313 28.207031 0.375 C 33.78125 1.464844 37.523438 4.734375 39.253906 6.492188 C 38.28125 6.273438 36.796875 6.207031 35.003906 6.324219 C 31.042969 6.578125 28.28125 8.03125 27.019531 8.871094 C 25.675781 9.765625 23.652344 11.320313 22.089844 13.96875 C 20.691406 16.347656 20.050781 18.558594 19.882813 22.125 L 19.882813 59.679688 "/>
</g>
<g clip-path="url(#clip2)" clip-rule="nonzero">
<path style=" stroke:none;fill-rule:nonzero;fill:rgb(13.299561%,36.898804%,96.099854%);fill-opacity:1;" d="M 27.019531 41.15625 C 26.792969 39.800781 26.679688 38.425781 26.679688 37.050781 L 26.679688 22.804688 C 26.699219 21.914063 26.859375 20.027344 28.039063 18.046875 C 29.523438 15.550781 31.691406 14.476563 32.457031 14.136719 C 34.9375 13.042969 37.136719 13.328125 38.0625 13.460938 C 39.09375 13.605469 41.113281 13.917969 42.992188 15.5 C 43.289063 15.75 44.675781 16.949219 45.539063 19.066406 C 46.011719 20.222656 46.167969 21.253906 46.21875 21.957031 L 46.21875 36.921875 C 46.21875 39.015625 46.664063 41.089844 47.558594 42.980469 C 47.566406 42.996094 47.574219 43.011719 47.578125 43.027344 C 49.074219 46.167969 51.0625 48.105469 51.828125 48.804688 C 53.117188 49.980469 55.714844 52.296875 59.816406 53.050781 C 62.445313 53.539063 64.648438 53.1875 65.929688 52.882813 C 65.078125 53.628906 63.828125 54.625 62.195313 55.601563 C 60.035156 56.894531 54.773438 59.941406 47.75 59.339844 C 40.164063 58.6875 35.195313 54.179688 33.304688 52.203125 C 29.28125 47.988281 27.535156 43.359375 27.019531 41.15625 "/>
</g>
<path style=" stroke:none;fill-rule:nonzero;fill:rgb(13.299561%,36.898804%,96.099854%);fill-opacity:1;" d="M 53.355469 35.820313 L 53.355469 20.9375 C 53.449219 19.296875 53.777344 16.859375 54.886719 14.136719 C 56.746094 9.578125 59.707031 6.941406 61.003906 5.8125 C 65.492188 1.902344 70.179688 0.800781 71.367188 0.546875 C 72.375 0.328125 76.777344 -0.539063 82.246094 0.882813 C 87.394531 2.226563 90.867188 4.921875 92.609375 6.492188 C 91.609375 6.335938 90.203125 6.203125 88.53125 6.324219 C 84.484375 6.609375 81.664063 8.179688 81.054688 8.53125 C 77.753906 10.429688 76.003906 12.945313 75.449219 13.800781 C 74.867188 14.695313 73.695313 16.539063 73.238281 19.238281 C 73.039063 20.40625 73.03125 21.410156 73.070313 22.125 L 72.898438 36.910156 C 72.90625 37.851563 72.796875 40.199219 71.199219 42.347656 C 68.839844 45.515625 65.050781 45.8125 63.722656 45.914063 C 62.359375 46.023438 58.890625 46.136719 56.246094 43.535156 C 54.777344 42.09375 54.074219 40.554688 53.867188 39.628906 C 53.527344 38.386719 53.355469 37.109375 53.355469 35.820313 "/>
<g clip-path="url(#clip3)" clip-rule="nonzero">
<path style=" stroke:none;fill-rule:nonzero;fill:rgb(13.299561%,36.898804%,96.099854%);fill-opacity:1;" d="M 79.695313 59.339844 L 79.695313 23.847656 C 79.695313 21.644531 80.3125 19.472656 81.542969 17.648438 C 81.601563 17.554688 81.667969 17.460938 81.734375 17.367188 C 82.335938 16.527344 83.273438 15.246094 84.964844 14.308594 C 87.761719 12.757813 90.597656 13.265625 91.589844 13.460938 C 92.578125 13.652344 94.789063 14.113281 96.6875 16.007813 C 98.523438 17.839844 99.023438 19.960938 99.238281 20.9375 C 99.578125 22.484375 99.40625 23.65625 99.40625 24.675781 L 99.40625 59.339844 "/>
</g>
<path style=" stroke:none;fill-rule:nonzero;fill:rgb(13.299561%,36.898804%,96.099854%);fill-opacity:1;" d="M 142.027344 51.246094 L 136.59375 51.246094 L 136.59375 38.941406 C 136.59375 36.605469 136.429688 35.183594 136.101563 34.675781 C 135.742188 34.105469 134.902344 33.824219 133.585938 33.824219 L 133.273438 33.824219 C 131.953125 33.824219 131.117188 34.105469 130.757813 34.675781 C 130.425781 35.183594 130.261719 36.605469 130.261719 38.941406 L 130.261719 51.246094 L 124.828125 51.246094 L 124.828125 38.941406 C 124.828125 36.605469 124.664063 35.183594 124.335938 34.675781 C 123.976563 34.105469 123.136719 33.824219 121.820313 33.824219 L 121.507813 33.824219 C 120.1875 33.824219 119.351563 34.105469 118.988281 34.675781 C 118.660156 35.183594 118.496094 36.605469 118.496094 38.941406 L 118.496094 51.246094 L 113.0625 51.246094 L 113.0625 38.042969 C 113.0625 35.109375 113.421875 33.074219 114.140625 31.9375 C 115.21875 30.230469 117.34375 29.375 120.519531 29.375 L 122.941406 29.375 C 124.109375 29.375 125.039063 29.519531 125.726563 29.804688 C 126.414063 30.089844 127.027344 30.574219 127.570313 31.261719 C 128.707031 30.003906 130.277344 29.375 132.285156 29.375 L 134.574219 29.375 C 137.746094 29.375 139.875 30.230469 140.949219 31.9375 C 141.671875 33.074219 142.027344 35.09375 142.027344 38 "/>
<path style=" stroke:none;fill-rule:nonzero;fill:rgb(13.299561%,36.898804%,96.099854%);fill-opacity:1;" d="M 157.925781 38.179688 L 157.925781 36.875 C 157.925781 34.839844 156.953125 33.824219 155.007813 33.824219 L 154.558594 33.824219 C 153.210938 33.824219 152.328125 34.210938 151.910156 34.992188 C 151.609375 35.5 151.414063 36.679688 151.324219 38.539063 L 157.613281 38.539063 C 157.820313 38.539063 157.925781 38.417969 157.925781 38.179688 M 163.539063 48.101563 C 162.613281 49.332031 161.566406 50.207031 160.398438 50.730469 C 159.230469 51.253906 157.761719 51.515625 155.996094 51.515625 L 153.839844 51.515625 C 151.265625 51.515625 149.351563 50.886719 148.09375 49.628906 C 147.195313 48.761719 146.574219 47.640625 146.226563 46.261719 C 145.882813 44.886719 145.710938 42.953125 145.710938 40.46875 C 145.710938 37.984375 145.882813 36.046875 146.226563 34.652344 C 146.574219 33.261719 147.195313 32.132813 148.09375 31.261719 C 149.351563 30.003906 151.265625 29.375 153.839844 29.375 L 155.59375 29.375 C 157.925781 29.375 159.796875 29.976563 161.203125 31.171875 C 162.613281 32.371094 163.316406 34.199219 163.316406 36.652344 L 163.316406 38.71875 C 163.316406 40.066406 163.023438 41.058594 162.441406 41.703125 C 161.855469 42.347656 160.785156 42.667969 159.230469 42.667969 L 151.324219 42.667969 C 151.414063 44.195313 151.625 45.273438 151.953125 45.902344 C 152.371094 46.679688 153.273438 47.070313 154.648438 47.070313 L 155.996094 47.070313 C 157.671875 47.070313 159.109375 46.382813 160.308594 45.003906 "/>
<path style=" stroke:none;fill-rule:nonzero;fill:rgb(13.299561%,36.898804%,96.099854%);fill-opacity:1;" d="M 177.777344 33.824219 L 175.621094 33.824219 C 174.304688 33.824219 173.464844 34.109375 173.105469 34.675781 C 172.777344 35.183594 172.613281 36.605469 172.613281 38.941406 L 172.613281 51.246094 L 167.175781 51.246094 L 167.175781 38.042969 C 167.175781 35.109375 167.539063 33.074219 168.253906 31.9375 C 169.335938 30.230469 171.460938 29.375 174.632813 29.375 L 177.777344 29.375 "/>
<path style=" stroke:none;fill-rule:nonzero;fill:rgb(13.299561%,36.898804%,96.099854%);fill-opacity:1;" d="M 189.050781 51.246094 L 187.253906 51.246094 C 184.886719 51.246094 183.195313 50.769531 182.179688 49.808594 C 181.160156 48.851563 180.652344 47.265625 180.652344 45.050781 L 180.652344 18.417969 L 186.085938 18.417969 L 186.085938 43.386719 C 186.085938 44.824219 186.203125 45.722656 186.445313 46.082031 C 186.773438 46.5625 187.371094 46.800781 188.238281 46.800781 L 189.050781 46.800781 "/>
<path style=" stroke:none;fill-rule:nonzero;fill:rgb(13.299561%,36.898804%,96.099854%);fill-opacity:1;" d="M 198.210938 51.246094 L 192.777344 51.246094 L 192.777344 29.734375 L 198.210938 29.734375 Z M 197.582031 22.101563 C 198.148438 22.667969 198.4375 23.375 198.4375 24.210938 C 198.4375 25.050781 198.148438 25.761719 197.582031 26.34375 C 197.011719 26.929688 196.308594 27.222656 195.46875 27.222656 C 194.632813 27.222656 193.921875 26.929688 193.339844 26.34375 C 192.753906 25.761719 192.460938 25.050781 192.460938 24.210938 C 192.460938 23.375 192.753906 22.667969 193.339844 22.101563 C 193.921875 21.53125 194.632813 21.246094 195.46875 21.246094 C 196.308594 21.246094 197.011719 21.53125 197.582031 22.101563 "/>
<path style=" stroke:none;fill-rule:nonzero;fill:rgb(13.299561%,36.898804%,96.099854%);fill-opacity:1;" d="M 220.574219 51.246094 L 215.140625 51.246094 L 215.140625 38.941406 C 215.140625 36.605469 214.976563 35.183594 214.644531 34.675781 C 214.285156 34.105469 213.449219 33.824219 212.132813 33.824219 L 211.546875 33.824219 C 210.230469 33.824219 209.390625 34.105469 209.03125 34.675781 C 208.703125 35.183594 208.539063 36.605469 208.539063 38.941406 L 208.539063 51.246094 L 203.105469 51.246094 L 203.105469 38.042969 C 203.105469 35.109375 203.464844 33.074219 204.183594 31.9375 C 205.261719 30.230469 207.386719 29.375 210.558594 29.375 L 213.121094 29.375 C 216.292969 29.375 218.417969 30.230469 219.496094 31.9375 C 220.214844 33.074219 220.574219 35.09375 220.574219 38 "/>
<path style=" stroke:none;fill-rule:nonzero;fill:rgb(13.299561%,36.898804%,96.099854%);fill-opacity:1;" d="M 236.472656 38.179688 L 236.472656 36.875 C 236.472656 34.839844 235.496094 33.824219 233.554688 33.824219 L 233.105469 33.824219 C 231.757813 33.824219 230.871094 34.210938 230.453125 34.992188 C 230.15625 35.5 229.960938 36.679688 229.871094 38.539063 L 236.160156 38.539063 C 236.367188 38.539063 236.472656 38.417969 236.472656 38.179688 M 242.085938 48.101563 C 241.160156 49.332031 240.109375 50.207031 238.941406 50.730469 C 237.777344 51.253906 236.308594 51.515625 234.542969 51.515625 L 232.386719 51.515625 C 229.8125 51.515625 227.894531 50.886719 226.636719 49.628906 C 225.738281 48.761719 225.117188 47.640625 224.773438 46.261719 C 224.429688 44.886719 224.257813 42.953125 224.257813 40.46875 C 224.257813 37.984375 224.429688 36.046875 224.773438 34.652344 C 225.117188 33.261719 225.738281 32.132813 226.636719 31.261719 C 227.894531 30.003906 229.8125 29.375 232.386719 29.375 L 234.136719 29.375 C 236.472656 29.375 238.34375 29.976563 239.75 31.171875 C 241.160156 32.371094 241.863281 34.199219 241.863281 36.652344 L 241.863281 38.71875 C 241.863281 40.066406 241.570313 41.058594 240.988281 41.703125 C 240.402344 42.347656 239.328125 42.667969 237.777344 42.667969 L 229.871094 42.667969 C 229.960938 44.195313 230.171875 45.273438 230.5 45.902344 C 230.917969 46.679688 231.816406 47.070313 233.195313 47.070313 L 234.542969 47.070313 C 236.21875 47.070313 237.65625 46.382813 238.851563 45.003906 "/>
<g clip-path="url(#clip4)" clip-rule="nonzero">
<path style=" stroke:none;fill-rule:nonzero;fill:rgb(13.299561%,36.898804%,96.099854%);fill-opacity:1;" d="M 261.039063 45.410156 C 261.039063 47.265625 260.394531 48.746094 259.105469 49.855469 C 257.820313 50.964844 255.902344 51.515625 253.359375 51.515625 L 252.101563 51.515625 C 250.304688 51.515625 248.929688 51.320313 247.96875 50.933594 C 247.011719 50.542969 245.949219 49.722656 244.78125 48.464844 L 247.699219 44.960938 C 248.449219 45.800781 249.121094 46.359375 249.722656 46.644531 C 250.320313 46.929688 251.128906 47.070313 252.144531 47.070313 L 253.269531 47.070313 C 254.976563 47.070313 255.828125 46.398438 255.828125 45.050781 C 255.828125 44.632813 255.808594 44.308594 255.761719 44.082031 C 255.71875 43.859375 255.589844 43.636719 255.378906 43.410156 C 255.171875 43.1875 254.871094 43.015625 254.480469 42.894531 L 249.988281 41.546875 C 248.375 41.066406 247.214844 40.445313 246.511719 39.683594 C 245.804688 38.917969 245.453125 37.804688 245.453125 36.335938 L 245.453125 35.394531 C 245.453125 33.417969 246.089844 31.921875 247.363281 30.902344 C 248.636719 29.886719 250.261719 29.375 252.234375 29.375 L 254.121094 29.375 C 255.738281 29.375 256.996094 29.570313 257.894531 29.960938 C 258.792969 30.351563 259.75 31.128906 260.769531 32.296875 L 257.578125 35.664063 C 256.890625 34.914063 256.335938 34.421875 255.917969 34.183594 C 255.5 33.941406 254.914063 33.824219 254.167969 33.824219 L 252.640625 33.824219 C 251.292969 33.824219 250.617188 34.347656 250.617188 35.394531 C 250.617188 35.933594 250.699219 36.335938 250.867188 36.605469 C 251.03125 36.875 251.410156 37.101563 252.011719 37.28125 L 256.503906 38.628906 C 258.117188 39.105469 259.277344 39.734375 259.980469 40.515625 C 260.683594 41.292969 261.039063 42.414063 261.039063 43.882813 "/>
</g>
</g>
</svg>
