<svg width="20" height="20" viewBox="0 0 20 20" fill="none" xmlns="http://www.w3.org/2000/svg">
<path d="M12.5687 4.9744V3.79729C12.5687 2.91514 11.851 2.19745 10.9687 2.19745H9.03132C8.14917 2.19745 7.43144 2.91514 7.43144 3.79729V4.9744H5.58276V17.8026H14.4173V4.9744H12.5687ZM11.3853 4.97436H8.61495V3.79725H8.61491C8.61491 3.56764 8.80175 3.38081 9.0314 3.38081H10.9688C11.1984 3.38081 11.3853 3.56764 11.3853 3.79725V4.97436Z" fill="#235EF5"/>
<path d="M17.23 4.97446H15.6008V17.8026H17.23C18.7574 17.8026 20 16.56 20 15.0326V7.74446C20 6.21707 18.7574 4.97446 17.23 4.97446Z" fill="#235EF5"/>
<path d="M4.39945 4.97446H2.77004C1.24262 4.97446 0 6.21707 0 7.74446V15.0326C0 16.56 1.24262 17.8026 2.77004 17.8026H4.39949L4.39945 4.97446Z" fill="#235EF5"/>
</svg>
