<svg width="35" height="20" viewBox="0 0 35 20" fill="none" xmlns="http://www.w3.org/2000/svg">
<path d="M27.5687 4.97441V3.7973C27.5687 2.91515 26.851 2.19746 25.9687 2.19746H24.0313C23.1492 2.19746 22.4314 2.91515 22.4314 3.7973V4.97441H20.5828V17.8026H29.4173V4.97441H27.5687ZM26.3853 4.97437H23.615V3.79726H23.6149C23.6149 3.56765 23.8017 3.38082 24.0314 3.38082H25.9688C26.1984 3.38082 26.3853 3.56765 26.3853 3.79726V4.97437Z" fill="#A1A1A1"/>
<path d="M32.23 4.97444H30.6008V17.8026H32.23C33.7574 17.8026 35 16.56 35 15.0326V7.74444C35 6.21706 33.7574 4.97444 32.23 4.97444Z" fill="#A1A1A1"/>
<path d="M19.3995 4.97444H17.77C16.2426 4.97444 15 6.21706 15 7.74444V15.0326C15 16.56 16.2426 17.8026 17.77 17.8026H19.3995V4.97444Z" fill="#A1A1A1"/>
<path d="M5.96796 0H4.03202C3.14401 0 2.42163 0.722422 2.42163 1.61039V3.51875H3.61444V1.61039C3.61444 1.38012 3.80175 1.19285 4.03198 1.19285H5.96792C6.19819 1.19285 6.3855 1.38016 6.3855 1.61039V3.51875H7.57835V1.61039C7.57835 0.722422 6.85593 0 5.96796 0Z" fill="#A1A1A1"/>
<path d="M8.69805 4.71169H1.30195C0.681524 4.71169 0.176758 5.21646 0.176758 5.83689V16.1761C0.176758 16.7966 0.681524 17.3013 1.30195 17.3013H8.69805C9.31848 17.3013 9.82324 16.7966 9.82324 16.1761V5.83693C9.82324 5.21646 9.31852 4.71169 8.69805 4.71169Z" fill="#A1A1A1"/>
<path d="M1.30199 18.4941C1.25699 18.4941 1.21238 18.4924 1.16797 18.4899V19.4035C1.16797 19.7329 1.435 19.9999 1.76437 19.9999C2.09375 19.9999 2.36078 19.7329 2.36078 19.4035V18.4941H1.30199Z" fill="#A1A1A1"/>
<path d="M8.69799 18.4941H7.63916V19.4035C7.63916 19.7329 7.90619 19.9999 8.23557 19.9999C8.56494 19.9999 8.83197 19.7329 8.83197 19.4035V18.4899C8.7876 18.4925 8.74299 18.4941 8.69799 18.4941Z" fill="#A1A1A1"/>
</svg>
