<svg width="12" height="12" viewBox="0 0 12 12" fill="none" xmlns="http://www.w3.org/2000/svg">
<path d="M8.90917 5.40002H7.68188V6.60003H8.90917V5.40002Z" fill="#333333"/>
<path d="M6.45458 5.40002H5.22729V6.60003H6.45458V5.40002Z" fill="#333333"/>
<path d="M4.00011 5.40002H2.77283V6.60003H4.00011V5.40002Z" fill="#333333"/>
<path d="M10.1364 1.20001H9.5228V0H8.29552V1.20001H3.38643V0H2.15914V1.20001H1.54552C0.864383 1.20001 0.324393 1.74001 0.324393 2.40002L0.318237 10.8C0.318237 11.46 0.864383 12 1.54552 12H10.1364C10.8114 12 11.3637 11.46 11.3637 10.8V2.39999C11.3637 1.74001 10.8114 1.20001 10.1364 1.20001ZM10.1364 10.8H1.54552V4.19999H10.1364V10.8Z" fill="#333333"/>
</svg>
