<svg width="71" height="65" viewBox="0 0 71 65" fill="none" xmlns="http://www.w3.org/2000/svg">
<g clip-path="url(#clip0)">
<path d="M29.7546 57.6796L37.1754 57.6796L49.0011 36.338L63.791 36.6143C66.493 36.6647 68.7133 34.6915 68.7133 32.2397C68.7133 29.788 66.4929 27.8146 63.791 27.8651L49.001 28.1414L37.1753 6.79975L29.7546 6.79981L35.4161 28.3951L20.1933 28.6794L16.1975 23.6303L9.49036 23.6303L14.0569 32.2397L9.49037 40.8491H16.1975L20.1933 35.8L35.4161 36.0844L29.7546 57.6796Z" fill="#E6E6E6"/>
<path d="M29.7545 57.6797L37.1753 57.6797L49.001 36.3381L63.7909 36.6144C66.4929 36.6648 68.7132 34.6916 68.7132 32.2398L14.0568 32.2398L9.49028 40.8493L16.1974 40.8493L20.1932 35.8001L35.416 36.0845L29.7545 57.6797Z" fill="#CCCCCC"/>
</g>
<defs>
<clipPath id="clip0">
<rect width="47.7368" height="47.7368" fill="white" transform="matrix(0.740631 0.671912 -0.740631 0.671912 35.3555 0.164978)"/>
</clipPath>
</defs>
</svg>
