<svg width="15" height="15" viewBox="0 0 15 15" fill="none" xmlns="http://www.w3.org/2000/svg">
<path d="M7.85718 4.64288V8.2143L10.9143 10.0286L11.4286 9.16074L8.9286 7.67858V4.64288H7.85718Z" fill="#333333"/>
<path d="M8.56785 1.07144C5.01429 1.07144 2.14286 3.95 2.14286 7.50001H0L2.78213 10.2821L2.83212 10.3857L5.7143 7.50001H3.57144C3.57144 4.73931 5.81073 2.50002 8.57143 2.50002C11.3321 2.50002 13.5714 4.73931 13.5714 7.50001C13.5714 10.2607 11.3321 12.5 8.57143 12.5C7.18929 12.5 5.94285 11.9357 5.0393 11.0321L4.02857 12.0429C5.1893 13.2071 6.79286 13.9286 8.56785 13.9286C12.1214 13.9286 15 11.05 15 7.50001C15 3.95 12.1214 1.07144 8.56785 1.07144Z" fill="#333333"/>
</svg>
