<svg width="32" height="32" viewBox="0 0 32 32" fill="none" xmlns="http://www.w3.org/2000/svg">
<g clip-path="url(#clip0)">
<path d="M7.23273 10.9532L5.42026 12.7657C7.20453 6.91912 13.3906 3.62604 19.2371 5.41031C21.4652 6.0903 23.422 7.456 24.8287 9.31289L26.4327 8.09753C22.0761 2.33806 13.8755 1.20068 8.11592 5.55726C5.7287 7.36292 4.03329 9.93296 3.31278 12.8382L1.42379 10.9532L0 12.376L4.32977 16.7058L8.65953 12.376L7.23273 10.9532Z" fill="#235EF5"/>
<path d="M27.6703 15.2734L23.3405 19.6032L24.7643 21.027L26.5979 19.1944C24.8293 25.0503 18.6485 28.3638 12.7925 26.5952C10.4633 25.8918 8.4306 24.441 7.00826 22.4669L5.37402 23.643C7.39372 26.4666 10.4582 28.366 13.8855 28.9182C14.588 29.0323 15.2985 29.0899 16.0101 29.0904C22.0214 29.0876 27.2543 24.9819 28.6873 19.144L30.5723 21.027L32.0001 19.6032L27.6703 15.2734ZM27.62 18.1744L27.6713 18.123L27.7458 18.1985L27.62 18.1744Z" fill="#235EF5"/>
</g>
<defs>
<clipPath id="clip0">
<rect width="32" height="32" fill="white"/>
</clipPath>
</defs>
</svg>
