<svg width="64" height="20" viewBox="0 0 64 20" fill="none" xmlns="http://www.w3.org/2000/svg">
<path d="M32.4124 4.81396H34.1305V6.30601H32.4124V4.81396ZM32.4124 7.17382H34.1306V13.4478H32.4124V7.17382Z" fill="#747679"/>
<path d="M36.7459 8.1767H36.7838C37.1755 7.46728 37.6176 7.10034 38.3757 7.10034C38.565 7.10034 38.6789 7.11267 38.78 7.14931V8.60465H38.742C37.6177 8.49467 36.8091 9.06945 36.8091 10.3902V13.4477H35.0908V7.17376H36.7459V8.1767Z" fill="#747679"/>
<path d="M42.1274 4.81396H43.8456V6.30601H42.1274V4.81396ZM42.1275 7.17382H43.8458V13.4478H42.1275V7.17382Z" fill="#747679"/>
<path d="M46.4861 8.02982H46.5239C46.9662 7.35718 47.5598 7.0025 48.4442 7.0025C49.7836 7.0025 50.6804 7.98086 50.6804 9.35066V13.4477H48.9623V9.59522C48.9623 8.92257 48.5579 8.44558 47.8378 8.44558C47.0799 8.44558 46.5239 9.03263 46.5239 9.88874V13.4477H44.8059V7.17371H46.4862V8.02982H46.4861Z" fill="#747679"/>
<path d="M51.3877 10.3047C51.3877 8.44571 52.6888 7.00262 54.5839 7.00262C56.6686 7.00262 57.7803 8.54357 57.7803 10.7816H53.0806C53.207 11.7477 53.7628 12.3471 54.7356 12.3471C55.4052 12.3471 55.7968 12.0536 55.9863 11.5765H57.6793C57.4393 12.6895 56.4159 13.6313 54.7483 13.6313C52.6005 13.6312 51.3877 12.1757 51.3877 10.3047ZM53.1058 9.63205H55.9863C55.9357 8.83702 55.3926 8.28662 54.6093 8.28662C53.6996 8.28662 53.2574 8.81257 53.1058 9.63205Z" fill="#747679"/>
<path d="M58.176 11.4175H59.7679C59.8817 12.1391 60.4121 12.4571 61.183 12.4571C61.9411 12.4571 62.3706 12.1757 62.3706 11.7356C62.3706 11.1363 61.5494 11.0751 60.665 10.904C59.5026 10.6838 58.3656 10.378 58.3656 9.0083C58.3656 7.65082 59.528 7.00262 61.0061 7.00262C62.7116 7.00262 63.6592 7.82203 63.7855 9.08164H62.2316C62.1557 8.40907 61.7135 8.16445 60.9808 8.16445C60.3112 8.16445 59.869 8.40907 59.869 8.86154C59.869 9.39961 60.7281 9.44858 61.6504 9.63212C62.7369 9.85222 63.9372 10.1457 63.9372 11.6133C63.9372 12.873 62.8253 13.6313 61.2082 13.6313C59.3257 13.6312 58.2773 12.7507 58.176 11.4175Z" fill="#747679"/>
<path d="M28.3584 4.81396H26.3586L22.7429 13.4477H24.7896L25.4592 11.6744H29.1483L29.8304 13.4477H31.8898L28.3584 4.81396ZM25.9518 10.219L27.2784 6.54994L28.6428 10.2189H25.9518V10.219Z" fill="#747679"/>
<path d="M41.1676 4.81396H39.4492V13.4477H41.1676V4.81396Z" fill="#747679"/>
<path d="M20.5131 9.99598C20.5131 15.4812 15.9243 19.9226 10.2597 19.9226C4.59429 19.9226 0 15.4812 0 9.99598C0 4.5108 4.59429 0.0651245 10.2597 0.0651245C15.9244 0.0651245 20.5131 4.5108 20.5131 9.99598Z" fill="#BED600"/>
<path d="M9.51227 4.8136C7.8967 4.8136 6.84863 4.90004 6.08994 5.17269C4.815 5.65346 3.93453 6.66109 3.93453 7.9853C3.93453 9.08821 4.46504 9.88694 6.00035 10.8056C7.6385 11.7669 7.9653 12.0846 7.9653 12.6639C7.9653 13.2979 7.32363 14.0195 5.67261 14.0195C5.09636 14.0195 4.2284 13.9423 3.67379 13.8109L3.40915 13.7463C3.26153 14.1295 2.9264 15.0357 2.82422 15.3646L3.08626 15.4392C3.58514 15.5932 4.76912 15.7135 5.61739 15.7135C8.4393 15.7135 10.123 14.0631 10.123 12.3349C10.123 11.273 9.62501 10.4659 7.94171 9.44919C7.09735 8.94642 6.66706 8.62039 6.40575 8.368C6.19393 8.10453 6.17049 7.90845 6.17049 7.7013C6.17049 7.50355 6.21593 7.27567 6.3506 7.10873C6.49628 6.90236 6.76345 6.77087 7.12506 6.66236C7.49673 6.54299 8.18537 6.53983 9.2579 6.53983H10.2565L10.9696 4.81367H9.51227V4.8136ZM17.0594 4.8136H12.041L11.3279 6.53969H12.9913C14.1105 6.53969 14.3258 6.51637 14.6069 6.51637C14.2011 7.41493 11.7557 13.4474 11.7557 13.4474H13.8253C13.8253 13.4474 16.9214 5.93801 17.2495 5.15069C17.3404 4.975 17.2953 4.8136 17.0594 4.8136Z" fill="white"/>
</svg>
