<svg width="13" height="12" viewBox="0 0 13 12" fill="none" xmlns="http://www.w3.org/2000/svg">
<path d="M6.84097 6.75C4.79677 6.75 0.70459 7.75125 0.70459 9.74999V12H12.9773V9.74999C12.9773 7.75125 8.88514 6.75 6.84097 6.75ZM11.5199 10.575H2.16197V9.74999C2.16197 9.26624 4.559 8.17499 6.84093 8.17499C9.12287 8.17499 11.5199 9.26624 11.5199 9.74999V10.575H11.5199Z" fill="#333333"/>
<path d="M6.84091 6.00002C8.5361 6.00002 9.90908 4.65378 9.90908 3.00003C9.90908 1.34251 8.53606 0 6.84091 0C5.14577 0 3.77271 1.34251 3.77271 2.99999C3.77271 4.65374 5.14573 6.00002 6.84091 6.00002ZM6.84091 1.42499C7.7307 1.42499 8.45171 2.12998 8.45171 2.99999C8.45171 3.87 7.7307 4.57499 6.84091 4.57499C5.95113 4.57499 5.23012 3.87 5.23012 2.99999C5.23012 2.13001 5.95113 1.42499 6.84091 1.42499Z" fill="#333333"/>
</svg>
