<svg width="30" height="30" viewBox="0 0 30 30" fill="none" xmlns="http://www.w3.org/2000/svg">
<path d="M24.8938 16.035C24.4088 15.4225 24.5475 15.15 24.8938 14.6025C24.9 14.5962 28.9037 9.06375 29.3162 7.1875L29.3188 7.18625C29.5238 6.5025 29.3188 6 28.3275 6H25.0475C24.2125 6 23.8275 6.43125 23.6213 6.91375C23.6213 6.91375 21.9513 10.9113 19.5887 13.5025C18.8263 14.2512 18.4738 14.4913 18.0575 14.4913C17.8525 14.4913 17.5338 14.2513 17.5338 13.5675V7.18625C17.5338 6.36625 17.3 6 16.6087 6H11.4513C10.9275 6 10.6163 6.3825 10.6163 6.73875C10.6163 7.51625 11.7975 7.695 11.92 9.8825V14.6287C11.92 15.6687 11.7312 15.86 11.3125 15.86C10.1975 15.86 7.49125 11.8462 5.8875 7.2525C5.56375 6.36125 5.2475 6.00125 4.40625 6.00125H1.125C0.18875 6.00125 0 6.4325 0 6.915C0 7.7675 1.115 12.0062 5.185 17.6062C7.8975 21.4288 11.7175 23.5 15.1925 23.5C17.2812 23.5 17.5363 23.04 17.5363 22.2488C17.5363 18.5963 17.3475 18.2512 18.3937 18.2512C18.8787 18.2512 19.7137 18.4913 21.6637 20.335C23.8925 22.5212 24.2588 23.5 25.5063 23.5H28.7862C29.7212 23.5 30.195 23.04 29.9225 22.1325C29.2987 20.2238 25.0838 16.2975 24.8938 16.035Z" fill="#4B729F"/>
</svg>
