<svg width="20" height="25" viewBox="0 0 20 25" fill="none" xmlns="http://www.w3.org/2000/svg">
<path d="M10.0001 0C4.475 0 0 0.657916 0 5.26314V18.421C0 19.5855 0.487502 20.6184 1.24999 21.3421V23.6842C1.24999 24.4079 1.81249 25 2.49997 25H3.75001C4.44377 25 5 24.4079 5 23.6842V22.3685H15.0001V23.6842C15.0001 24.4079 15.5563 25 16.25 25H17.5C18.1875 25 18.75 24.4079 18.75 23.6842V21.3421C19.5125 20.6185 20 19.5856 20 18.4211V5.26314C20.0001 0.657916 15.5251 0 10.0001 0ZM4.37504 19.7369C3.33751 19.7369 2.50003 18.8553 2.50003 17.7632C2.50003 16.671 3.33751 15.7895 4.37504 15.7895C5.41256 15.7895 6.25004 16.671 6.25004 17.7632C6.25004 18.8553 5.4125 19.7369 4.37504 19.7369ZM15.6251 19.7369C14.5876 19.7369 13.7501 18.8553 13.7501 17.7632C13.7501 16.671 14.5876 15.7895 15.6251 15.7895C16.6626 15.7895 17.5001 16.671 17.5001 17.7632C17.5001 18.8553 16.6625 19.7369 15.6251 19.7369ZM17.5001 11.8421H2.50003V5.26314H17.5001V11.8421Z" fill="#A1A1A1"/>
</svg>
