<svg width="33" height="29" viewBox="0 0 33 29" fill="none" xmlns="http://www.w3.org/2000/svg">
<path d="M16.5 11.3418C19.5919 11.3418 22.1074 8.82632 22.1074 5.73438C22.1074 2.64243 19.5919 0.126953 16.5 0.126953C13.4081 0.126953 10.8926 2.64243 10.8926 5.73438C10.8926 8.82632 13.4081 11.3418 16.5 11.3418ZM16.5 2.06055C18.5258 2.06055 20.1738 3.70861 20.1738 5.73438C20.1738 7.76014 18.5258 9.4082 16.5 9.4082C14.4742 9.4082 12.8262 7.76014 12.8262 5.73438C12.8262 3.70861 14.4742 2.06055 16.5 2.06055Z" fill="#235EF5"/>
<path d="M27.8438 11.3418C29.7984 11.3418 31.3887 9.75154 31.3887 7.79688C31.3887 5.84221 29.7984 4.25195 27.8438 4.25195C25.8891 4.25195 24.2988 5.84221 24.2988 7.79688C24.2988 9.75154 25.8891 11.3418 27.8438 11.3418ZM27.8438 6.18555C28.7322 6.18555 29.4551 6.90839 29.4551 7.79688C29.4551 8.68536 28.7322 9.4082 27.8438 9.4082C26.9553 9.4082 26.2324 8.68536 26.2324 7.79688C26.2324 6.90839 26.9553 6.18555 27.8438 6.18555Z" fill="#235EF5"/>
<path d="M28.6236 13.5332H27.1283C25.3662 13.5332 23.8451 14.5742 23.152 16.0696C21.725 14.5117 19.6752 13.5332 17.401 13.5332H15.5991C13.3249 13.5332 11.2751 14.5117 9.84805 16.0696C9.15486 14.5742 7.63376 13.5332 5.87168 13.5332H4.37637C1.96324 13.5332 0 15.4846 0 17.8831V24.9221C0 25.9634 0.850395 26.8105 1.8957 26.8105H7.80779C7.90692 27.9643 8.87706 28.873 10.0561 28.873H22.944C24.1229 28.873 25.0931 27.9643 25.1923 26.8105H31.0368C32.1194 26.8105 33.0001 25.9333 33.0001 24.855V17.8831C33 15.4846 31.0368 13.5332 28.6236 13.5332ZM1.93359 17.8831C1.93359 16.5508 3.02943 15.4668 4.37637 15.4668H5.87168C7.21862 15.4668 8.31445 16.5508 8.31445 17.8831V18.5451C7.66431 20.2379 7.79883 21.2524 7.79883 24.877H1.93359V17.8831ZM23.2676 26.6158C23.2676 26.7943 23.1224 26.9395 22.944 26.9395H10.056C9.87757 26.9395 9.73242 26.7942 9.73242 26.6158V21.3334C9.73242 18.0985 12.3642 15.4668 15.599 15.4668H17.4009C20.6358 15.4668 23.2676 18.0985 23.2676 21.3334V26.6158ZM31.0664 24.855C31.0664 24.8884 31.4268 24.877 25.2012 24.877C25.2012 21.2256 25.3347 20.2352 24.6855 18.5451V17.8831C24.6855 16.5508 25.7814 15.4668 27.1283 15.4668H28.6236C29.9706 15.4668 31.0664 16.5508 31.0664 17.8831V24.855Z" fill="#235EF5"/>
<path d="M5.15625 11.3418C7.11092 11.3418 8.70117 9.75154 8.70117 7.79688C8.70117 5.84221 7.11092 4.25195 5.15625 4.25195C3.20158 4.25195 1.61133 5.84221 1.61133 7.79688C1.61133 9.75154 3.20158 11.3418 5.15625 11.3418ZM5.15625 6.18555C6.04474 6.18555 6.76758 6.90839 6.76758 7.79688C6.76758 8.68536 6.04474 9.4082 5.15625 9.4082C4.26776 9.4082 3.54492 8.68536 3.54492 7.79688C3.54492 6.90839 4.26776 6.18555 5.15625 6.18555Z" fill="#235EF5"/>
</svg>
