<svg width="15" height="15" viewBox="0 0 15 15" fill="none" xmlns="http://www.w3.org/2000/svg">
<g clip-path="url(#clip0)">
<path d="M8.87425 7.51227L14.715 1.67141C15.0951 1.29148 15.0951 0.677197 14.715 0.297272C14.335 -0.082652 13.7207 -0.082652 13.3408 0.297272L7.49993 6.13814L1.65922 0.297272C1.27911 -0.082652 0.665003 -0.082652 0.285078 0.297272C-0.0950259 0.677197 -0.0950259 1.29148 0.285078 1.67141L6.12579 7.51227L0.285078 13.3531C-0.0950259 13.7331 -0.0950259 14.3474 0.285078 14.7273C0.474418 14.9168 0.723371 15.012 0.972147 15.012C1.22092 15.012 1.4697 14.9168 1.65922 14.7273L7.49993 8.88641L13.3408 14.7273C13.5303 14.9168 13.7791 15.012 14.0279 15.012C14.2767 15.012 14.5254 14.9168 14.715 14.7273C15.0951 14.3474 15.0951 13.7331 14.715 13.3531L8.87425 7.51227Z" fill="#A1A1A1"/>
</g>
<defs>
<clipPath id="clip0">
<rect width="15" height="15" fill="white"/>
</clipPath>
</defs>
</svg>
