<svg width="15" height="15" viewBox="0 0 15 15" fill="none" xmlns="http://www.w3.org/2000/svg">
<path d="M13.5 0H1.5C0.675 0 0 0.675 0 1.5V13.5C0 14.325 0.675 15 1.5 15H13.5C14.325 15 15 14.325 15 13.5V1.5C15 0.675 14.325 0 13.5 0ZM7.5 4.5C9.15 4.5 10.5 5.85 10.5 7.5C10.5 9.15 9.15 10.5 7.5 10.5C5.85 10.5 4.5 9.15 4.5 7.5C4.5 5.85 5.85 4.5 7.5 4.5ZM1.875 13.5C1.65 13.5 1.5 13.35 1.5 13.125V6.75H3.075C3 6.975 3 7.275 3 7.5C3 9.975 5.025 12 7.5 12C9.975 12 12 9.975 12 7.5C12 7.275 12 6.975 11.925 6.75H13.5V13.125C13.5 13.35 13.35 13.5 13.125 13.5H1.875ZM13.5 3.375C13.5 3.6 13.35 3.75 13.125 3.75H11.625C11.4 3.75 11.25 3.6 11.25 3.375V1.875C11.25 1.65 11.4 1.5 11.625 1.5H13.125C13.35 1.5 13.5 1.65 13.5 1.875V3.375Z" fill="#333333"/>
</svg>
