<svg width="32" height="32" viewBox="0 0 32 32" fill="none" xmlns="http://www.w3.org/2000/svg">
<g>
<path d="M7.23273 21.0468L5.42026 19.2343C7.20453 25.0809 13.3906 28.374 19.2371 26.5897C21.4652 25.9097 23.422 24.544 24.8287 22.6871L26.4327 23.9025C22.0761 29.6619 13.8755 30.7993 8.11592 26.4427C5.7287 24.6371 4.03329 22.067 3.31278 19.1618L1.42379 21.0468L0 19.624L4.32977 15.2942L8.65953 19.624L7.23273 21.0468Z" fill="#235EF5"/>
<path d="M27.6703 16.7266L23.3405 12.3968L24.7643 10.973L26.5979 12.8056C24.8293 6.94966 18.6485 3.63619 12.7925 5.40478C10.4633 6.10825 8.4306 7.55903 7.00826 9.5331L5.37402 8.35702C7.39372 5.53336 10.4582 3.63405 13.8855 3.08175C14.588 2.96772 15.2985 2.91013 16.0101 2.90957C22.0214 2.9124 27.2543 7.01806 28.6873 12.856L30.5723 10.973L32.0001 12.3968L27.6703 16.7266ZM27.62 13.8256L27.6713 13.877L27.7458 13.8015L27.62 13.8256Z" fill="#235EF5"/>
</g>
</svg>
