<svg width="15" height="15" viewBox="0 0 15 15" fill="none" xmlns="http://www.w3.org/2000/svg">
<g clip-path="url(#clip0)">
<path d="M13.0362 6.18425H14.4887C14.3797 3.77445 13.2323 1.65415 11.4929 0.281982L10.458 1.35341C11.9323 2.4474 12.9236 4.19174 13.0362 6.18425Z" fill="#A1A1A1"/>
<path d="M4.0343 1.35718L2.99576 0.281982C1.25642 1.65415 0.108937 3.77445 0 6.18425H1.4525C1.56505 4.19174 2.55637 2.4474 4.0343 1.35718Z" fill="#A1A1A1"/>
<path d="M11.6018 6.56009C11.6018 4.24806 10.4144 2.31949 8.33369 1.8082V1.29695C8.33369 0.672876 7.84711 0.169128 7.24432 0.169128C6.64152 0.169128 6.15495 0.672876 6.15495 1.29695V1.80824C4.07425 2.31953 2.88683 4.2481 2.88683 6.56013V10.3195L1.43433 11.8233V12.5751H13.0543V11.8233L11.6018 10.3195V6.56009Z" fill="#A1A1A1"/>
<path d="M7.24422 14.8308C7.34591 14.8308 7.44395 14.8195 7.53835 14.8008C8.01042 14.6993 8.39895 14.3609 8.58415 13.9136C8.65676 13.7331 8.69673 13.5376 8.69673 13.3271H5.79175C5.79171 14.1579 6.44173 14.8308 7.24422 14.8308Z" fill="#A1A1A1"/>
</g>
<defs>
<clipPath id="clip0">
<rect width="14.4886" height="15" fill="white"/>
</clipPath>
</defs>
</svg>
