<svg width="33" height="33" viewBox="0 0 33 33" fill="none" xmlns="http://www.w3.org/2000/svg">
<path d="M32.0332 31.0664H30.873V13.9219C30.873 12.5358 29.7454 11.4082 28.3594 11.4082H25.2656C23.8796 11.4082 22.752 12.5358 22.752 13.9219V31.0664H20.5605V17.6999C20.5605 16.5407 19.6175 15.5977 18.4583 15.5977H14.5417C13.3825 15.5977 12.4395 16.5407 12.4395 17.6999V31.0664H10.248V21.9127C10.248 20.7051 9.26559 19.7227 8.05799 19.7227H4.31701C3.10941 19.7227 2.12695 20.7051 2.12695 21.9127V31.0664H0.966797C0.432867 31.0664 0 31.4993 0 32.0332C0 32.5671 0.432867 33 0.966797 33H32.0332C32.5671 33 33 32.5671 33 32.0332C33 31.4993 32.5671 31.0664 32.0332 31.0664ZM4.06055 31.0664V21.9127C4.06055 21.7713 4.1756 21.6562 4.31701 21.6562H8.05806C8.19947 21.6562 8.31452 21.7713 8.31452 21.9127V31.0664H4.06055ZM14.373 31.0664V17.6999C14.373 17.6069 14.4487 17.5312 14.5417 17.5312H18.4583C18.5513 17.5312 18.627 17.6069 18.627 17.6999V31.0664H14.373ZM24.6855 31.0664V13.9219C24.6855 13.6021 24.9458 13.3418 25.2656 13.3418H28.3594C28.6792 13.3418 28.9395 13.6021 28.9395 13.9219V31.0664H24.6855Z" fill="#235EF5"/>
<path d="M0.968751 12.375H2.82345C3.24627 13.5392 4.36337 14.373 5.67177 14.373C7.39505 14.373 8.78305 12.9277 8.6972 11.1925L14.1808 9.03601C16.0512 11.2612 19.6717 9.81067 19.5252 6.93406L24.4965 4.9792C26.0247 6.7913 28.93 6.22417 29.6826 3.99609H32.0317C32.5656 3.99609 32.9985 3.56323 32.9985 3.0293C32.9985 2.49537 32.5656 2.0625 32.0317 2.0625H29.6826C29.2781 0.864961 28.1447 0 26.8124 0C25.0891 0 23.7013 1.44523 23.787 3.1805L18.8128 5.13653C16.9534 2.93829 13.336 4.34163 13.4743 7.23609L7.98757 9.39385C6.43225 7.54959 3.487 8.17936 2.77976 10.4414H0.968751C0.434821 10.4414 0.00195312 10.8743 0.00195312 11.4082C0.00195312 11.9421 0.434821 12.375 0.968751 12.375ZM26.8124 1.93359C27.4166 1.93359 27.9081 2.42511 27.9081 3.0293C27.9081 3.63348 27.4166 4.125 26.8124 4.125C26.2082 4.125 25.7167 3.63348 25.7167 3.0293C25.7167 2.42511 26.2082 1.93359 26.8124 1.93359ZM16.4999 5.99414C17.1041 5.99414 17.5956 6.48566 17.5956 7.08984C17.5956 7.69403 17.1041 8.18555 16.4999 8.18555C15.8957 8.18555 15.4042 7.69403 15.4042 7.08984C15.4042 6.48566 15.8957 5.99414 16.4999 5.99414ZM5.67177 10.248C6.27595 10.248 6.76747 10.7396 6.76747 11.3438C6.76747 11.9479 6.27595 12.4395 5.67177 12.4395C5.06758 12.4395 4.57607 11.9479 4.57607 11.3438C4.57607 10.7396 5.06758 10.248 5.67177 10.248Z" fill="#235EF5"/>
</svg>
