<svg width="15" height="15" viewBox="0 0 15 15" fill="none" xmlns="http://www.w3.org/2000/svg">
<path d="M7.5 15C8.47081 15 9.25781 14.213 9.25781 13.2422C9.25781 12.2714 8.47081 11.4844 7.5 11.4844C6.52919 11.4844 5.74219 12.2714 5.74219 13.2422C5.74219 14.213 6.52919 15 7.5 15Z" fill="#333333"/>
<path d="M7.5 0C4.97991 0 2.92969 2.05022 2.92969 4.57031V5.00977H6.44531V4.57031C6.44531 3.98874 6.91843 3.51562 7.5 3.51562C8.08157 3.51562 8.55469 3.98874 8.55469 4.57031C8.55469 4.88021 8.41866 5.17353 8.18145 5.37513L5.74219 7.44896V10.6055H9.25781V9.07447L10.4583 8.05386C11.4827 7.18333 12.0703 5.91366 12.0703 4.57031C12.0703 2.05022 10.0201 0 7.5 0V0Z" fill="#333333"/>
</svg>
