<svg width="33" height="31" viewBox="0 0 33 31" fill="none" xmlns="http://www.w3.org/2000/svg">
<path d="M30.2422 13.7598H29.2958L19.3333 5.06078C20.1622 3.07627 18.6955 0.869141 16.5323 0.869141C14.3725 0.869141 12.9011 3.07318 13.7313 5.06078L3.76883 13.7598H2.75776C1.23711 13.7598 0 14.9969 0 16.5175V27.3731C0 28.8937 1.23711 30.1309 2.75776 30.1309H30.2422C31.7629 30.1309 33 28.8937 33 27.3731V16.5175C33 14.9969 31.7629 13.7598 30.2422 13.7598ZM16.5323 2.80273C17.1388 2.80273 17.6322 3.29425 17.6322 3.89844C17.6322 4.50262 17.1388 4.99414 16.5323 4.99414C15.9258 4.99414 15.4323 4.50262 15.4323 3.89844C15.4323 3.29425 15.9258 2.80273 16.5323 2.80273ZM15.006 6.51472C15.9485 7.06521 17.1143 7.06618 18.0585 6.51472L26.3559 13.7598H6.70867L15.006 6.51472ZM31.0664 27.3731C31.0664 27.8276 30.6967 28.1973 30.2422 28.1973H2.75776C2.3033 28.1973 1.93359 27.8276 1.93359 27.3731V16.5175C1.93359 16.0631 2.3033 15.6934 2.75776 15.6934H30.2422C30.6967 15.6934 31.0664 16.0631 31.0664 16.5175V27.3731Z" fill="#235EF5"/>
<path d="M15.3726 18.5972C15.0208 17.6654 13.6941 17.6416 13.3121 18.5724C13.3062 18.5869 13.4158 18.3 10.9603 24.734C10.7699 25.2329 11.02 25.7916 11.5188 25.9819C12.0178 26.1723 12.5763 25.9223 12.7667 25.4235L13.1128 24.5165H15.5439L15.8858 25.4207C16.0321 25.8075 16.3998 26.0458 16.7903 26.0458C17.4618 26.0458 17.9345 25.3716 17.6944 24.7367L15.3726 18.5972ZM13.8508 22.5829L14.334 21.3171L14.8127 22.5829H13.8508Z" fill="#235EF5"/>
<path d="M22.3303 24.1312C22.2428 24.1312 21.8089 24.1346 21.1033 24.136V18.8516C21.1033 18.3176 20.6704 17.8848 20.1365 17.8848C19.6025 17.8848 19.1697 18.3176 19.1697 18.8516V25.098C19.1697 25.5692 19.5093 25.9717 19.9736 26.051C20.1598 26.0828 21.5588 26.0692 22.3355 26.0648C22.8694 26.0619 23.2999 25.6266 23.2969 25.0926C23.294 24.5606 22.8617 24.1312 22.3303 24.1312Z" fill="#235EF5"/>
<path d="M27.9175 19.8184C28.4515 19.8184 28.8843 19.3855 28.8843 18.8516C28.8843 18.3176 28.4515 17.8848 27.9175 17.8848H25.2925C24.7586 17.8848 24.3257 18.3176 24.3257 18.8516V25.0684C24.3257 25.6023 24.7586 26.0352 25.2925 26.0352H27.9175C28.4515 26.0352 28.8843 25.6023 28.8843 25.0684C28.8843 24.5345 28.4515 24.1016 27.9175 24.1016H26.2593V22.9267H27.724C28.2579 22.9267 28.6908 22.4939 28.6908 21.9599C28.6908 21.426 28.2579 20.9931 27.724 20.9931H26.2593V19.8184H27.9175Z" fill="#235EF5"/>
<path d="M8.24356 21.0869C7.51563 20.8189 6.83559 20.5278 6.59286 20.4222C6.52473 20.3566 6.5188 20.2745 6.5275 20.213C6.59743 19.7251 7.6923 19.6596 8.41282 20.2306C8.41295 20.2303 8.4143 20.2321 8.41449 20.2317C9.01977 20.7697 10.0042 20.3478 10.0042 19.4982C10.0042 19.188 9.8605 18.9123 9.63756 18.7342C7.83223 17.2448 4.92429 17.7703 4.61344 19.9387C4.46816 20.9526 5.0648 21.859 5.71255 22.1474C5.74871 22.1635 6.60813 22.5453 7.57551 22.9014C7.93922 23.0353 8.31143 23.2701 8.26554 23.5276C8.22642 23.7473 7.91505 24.0723 7.37113 24.0723C6.80774 24.0723 6.26756 23.8479 5.92615 23.472C5.56728 23.0768 4.95581 23.0472 4.56052 23.4062C4.16523 23.7651 4.13577 24.3766 4.49471 24.7718C6.27246 26.7296 9.7372 26.2909 10.1692 23.8668C10.3367 22.9272 9.91877 21.7035 8.24356 21.0869Z" fill="#235EF5"/>
</svg>
