<svg width="15" height="15" viewBox="0 0 15 15" fill="none" xmlns="http://www.w3.org/2000/svg">
<path d="M10.7204 9.43398H10.0386L9.80274 9.19811C10.6432 8.22471 11.1492 6.95969 11.1492 5.57463C11.1492 2.49571 8.6535 0 5.57463 0C2.49575 0 0 2.49571 0 5.57463C0 8.65354 2.49571 11.1493 5.57463 11.1493C6.95969 11.1493 8.22471 10.6432 9.19811 9.80705L9.43398 10.0429V10.7204L13.7221 15L15 13.7221L10.7204 9.43398ZM5.57463 9.43398C3.44342 9.43398 1.71528 7.70583 1.71528 5.57463C1.71528 3.44342 3.44342 1.71528 5.57463 1.71528C7.70583 1.71528 9.43398 3.44342 9.43398 5.57463C9.43398 7.70583 7.70583 9.43398 5.57463 9.43398Z" fill="white"/>
</svg>
