<svg width="16" height="15" viewBox="0 0 16 15" fill="none" xmlns="http://www.w3.org/2000/svg">
<g clip-path="url(#clip0)">
<path d="M15.4553 5.7586C15.3751 5.51169 15.1617 5.33175 14.9048 5.29447L10.5485 4.66155L8.60026 0.713715C8.48537 0.480947 8.24829 0.333557 7.98874 0.333557C7.72915 0.333557 7.49206 0.480947 7.37722 0.713715L5.42911 4.6615L1.07266 5.29443C0.815801 5.33175 0.602355 5.51169 0.522159 5.75856C0.441963 6.00546 0.508838 6.27647 0.694734 6.45763L3.84706 9.53008L3.10261 13.8693C3.05874 14.1252 3.16389 14.3837 3.37389 14.5363C3.49268 14.6226 3.63339 14.6665 3.77477 14.6665C3.88329 14.6665 3.99227 14.6407 4.09206 14.5882L7.98869 12.5397L11.8853 14.5882C11.9857 14.641 12.0956 14.6661 12.2045 14.6665C12.5807 14.666 12.8855 14.3609 12.8855 13.9846C12.8855 13.9322 12.8796 13.8812 12.8684 13.8322L12.1304 9.53013L15.2827 6.45763C15.4686 6.27647 15.5355 6.00546 15.4553 5.7586Z" fill="#A1A1A1"/>
</g>
<defs>
<clipPath id="clip0">
<rect width="15" height="15" fill="white" transform="translate(0.48877)"/>
</clipPath>
</defs>
</svg>
