<svg width="20" height="25" viewBox="0 0 20 25" fill="none" xmlns="http://www.w3.org/2000/svg">
<path d="M10 0C4.99997 0 0 0.657914 0 5.26313V17.7631C0 20.3026 1.96248 22.3684 4.37501 22.3684L2.50001 24.3421V25H5.28749L7.7875 22.3684H12.5L15 24.9999H17.5V24.342L15.625 22.3683C18.0375 22.3683 20 20.3026 20 17.7631V5.26313C19.9999 0.657914 15.525 0 10 0ZM4.37501 19.7368C3.33749 19.7368 2.50001 18.8553 2.50001 17.7631C2.50001 16.671 3.33749 15.7894 4.37501 15.7894C5.41253 15.7894 6.25001 16.671 6.25001 17.7631C6.25001 18.8553 5.41247 19.7368 4.37501 19.7368ZM8.74996 10.5263H2.50001V5.26313H8.75002V10.5263H8.74996ZM15.625 19.7368C14.5875 19.7368 13.75 18.8553 13.75 17.7631C13.75 16.671 14.5875 15.7894 15.625 15.7894C16.6625 15.7894 17.5 16.671 17.5 17.7631C17.5 18.8553 16.6624 19.7368 15.625 19.7368ZM17.5 10.5263H11.25V5.26313H17.5V10.5263Z" fill="#A1A1A1"/>
</svg>
