<svg width="15" height="15" viewBox="0 0 15 15" fill="none" xmlns="http://www.w3.org/2000/svg">
<g clip-path="url(#clip0)">
<path d="M14.5312 9.37502C14.2725 9.37502 14.0625 9.16502 14.0625 8.90627C14.0625 7.09689 12.5906 5.62502 10.7812 5.62502H6.25V7.65627C6.25 8.06877 5.75375 8.27752 5.4575 7.99502L2.02 4.71377C1.9275 4.62564 1.875 4.50314 1.875 4.37502C1.875 4.24689 1.9275 4.12439 2.02 4.03627L5.4575 0.755018C5.755 0.471268 6.25 0.682518 6.25 1.09377V3.12502H10.1562C12.8269 3.12502 15 5.29814 15 7.96877V8.90627C15 9.16502 14.79 9.37502 14.5312 9.37502Z" fill="#235EF5"/>
<path d="M8.75 13.9063V11.875H4.84375C2.17313 11.875 0 9.70188 0 7.03125V6.09375C0 5.835 0.21 5.625 0.46875 5.625C0.7275 5.625 0.9375 5.835 0.9375 6.09375C0.9375 7.90313 2.40937 9.375 4.21875 9.375H8.75V7.34375C8.75 6.93313 9.24438 6.72 9.5425 7.005L12.98 10.2863C13.0725 10.3744 13.125 10.4969 13.125 10.625C13.125 10.7531 13.0725 10.8756 12.98 10.9638L9.5425 14.245C9.24438 14.5288 8.75 14.3175 8.75 13.9063Z" fill="#235EF5"/>
</g>
<defs>
<clipPath id="clip0">
<rect width="15" height="15" fill="white"/>
</clipPath>
</defs>
</svg>
