<svg width="13" height="12" viewBox="0 0 13 12" fill="none" xmlns="http://www.w3.org/2000/svg">
<g clip-path="url(#clip0)">
<path d="M10.2927 12H3.38925C1.90655 12 0.70459 10.8247 0.70459 9.375V2.625C0.70459 1.17525 1.90655 0 3.38925 0H10.2927C11.7754 0 12.9773 1.17525 12.9773 2.625V9.375C12.9773 10.8247 11.7754 12 10.2927 12Z" fill="#41479B"/>
<path d="M12.9773 9.37476V8.79851L11.0736 7.57898H12.9773V6.94739H7.80981V12H8.45574V8.16705L12.553 10.7918C12.6981 10.5709 12.8102 10.3273 12.8826 10.0677" fill="#F5F5F5"/>
<path d="M0.885109 10.3229C0.9505 10.4879 1.03233 10.6449 1.12884 10.7918L5.22611 8.16705V12H5.87203V6.94739H0.70459V7.57898H2.60828L0.70459 8.79851V9.37502C0.70459 9.47594 0.71063 9.57548 0.721968 9.67345" fill="#F5F5F5"/>
<path d="M0.70459 2.71423V3.20152L2.60828 4.42106H0.70459V5.05263H5.87206V0H5.22613V3.83297L1.12884 1.2082C0.969604 1.45062 0.850161 1.72036 0.779233 2.00859" fill="#F5F5F5"/>
<path d="M12.7932 1.66802C12.7284 1.50633 12.6478 1.35241 12.553 1.20818L8.45574 3.83297V0H7.80981V5.05263H12.9773V4.42106H11.0736L12.9773 3.20152V2.625C12.9773 2.52047 12.9708 2.41739 12.9587 2.31605" fill="#F5F5F5"/>
<path d="M7.80985 0H5.87206V5.05263H0.70459V6.94737H5.87206V12H7.80985V6.94737H12.9773V5.05263H7.80985V0Z" fill="#FF4B55"/>
<path d="M4.02154 7.57894L0.721558 9.67341C0.747781 9.89989 0.803392 10.1176 0.884723 10.3229L5.20796 7.57892H4.02154V7.57894Z" fill="#FF4B55"/>
<path d="M8.96143 7.57894L12.8826 10.0677C12.9442 9.84697 12.9773 9.61477 12.9773 9.37498V9.37472L10.1479 7.57892L8.96143 7.57894Z" fill="#FF4B55"/>
<path d="M4.58018 4.42107L0.779233 2.00861C0.73055 2.20632 0.70459 2.41269 0.70459 2.62501V2.71424L3.39376 4.42107H4.58018Z" fill="#FF4B55"/>
<path d="M9.64221 4.42105L12.9587 2.31603C12.9316 2.09 12.8753 1.87273 12.7933 1.66803L8.45581 4.42105H9.64221Z" fill="#FF4B55"/>
</g>
<defs>
<clipPath id="clip0">
<rect width="12.2727" height="12" fill="white" transform="translate(0.70459)"/>
</clipPath>
</defs>
</svg>
