<?xml version="1.0" encoding="UTF-8" standalone="no"?>
<svg
   xmlns:dc="http://purl.org/dc/elements/1.1/"
   xmlns:cc="http://creativecommons.org/ns#"
   xmlns:rdf="http://www.w3.org/1999/02/22-rdf-syntax-ns#"
   xmlns:svg="http://www.w3.org/2000/svg"
   xmlns="http://www.w3.org/2000/svg"
   xmlns:sodipodi="http://sodipodi.sourceforge.net/DTD/sodipodi-0.dtd"
   xmlns:inkscape="http://www.inkscape.org/namespaces/inkscape"
   version="1.1"
   id="svg2"
   xml:space="preserve"
   width="593.55469"
   height="590.01465"
   viewBox="0 0 593.55469 590.01465"
   sodipodi:docname="MerLines5.ai"><metadata
     id="metadata8"><rdf:RDF><cc:Work
         rdf:about=""><dc:format>image/svg+xml</dc:format><dc:type
           rdf:resource="http://purl.org/dc/dcmitype/StillImage" /></cc:Work></rdf:RDF></metadata><defs
     id="defs6"><clipPath
       clipPathUnits="userSpaceOnUse"
       id="clipPath18"><path
         d="M 0,442.511 H 445.166 V 0 H 0 Z"
         id="path16" /></clipPath></defs><sodipodi:namedview
     pagecolor="#ffffff"
     bordercolor="#666666"
     borderopacity="1"
     objecttolerance="10"
     gridtolerance="10"
     guidetolerance="10"
     inkscape:pageopacity="0"
     inkscape:pageshadow="2"
     inkscape:window-width="640"
     inkscape:window-height="480"
     id="namedview4" /><g
     id="g10"
     inkscape:groupmode="layer"
     inkscape:label="MerLines5"
     transform="matrix(1.3333333,0,0,-1.3333333,0,590.01467)"><g
       id="g12"><g
         id="g14"
         clip-path="url(#clipPath18)"><g
           id="g20"
           transform="translate(87.1014,221.2285)"><path
             d="m 0,0 v 15.803 22.091 c 0.203,2.135 0.768,5.191 2.379,8.496 1.616,3.313 3.574,5.422 4.248,6.117 1.069,1.103 3.035,2.909 5.948,4.418 0.643,0.334 3.442,1.745 7.476,2.379 1.598,0.252 4.598,0.697 8.157,0 5.573,-1.091 9.314,-4.358 11.045,-6.117 -0.973,0.22 -2.455,0.286 -4.248,0.17 C 31.042,53.102 28.28,51.649 27.019,50.808 25.676,49.914 23.652,48.361 22.09,45.71 20.69,43.332 20.051,41.122 19.881,37.554 V 0 Z"
             style="fill:#ffffff;fill-opacity:1;fill-rule:nonzero;stroke:none"
             id="path22" /></g><g
           id="g24"
           transform="translate(114.12,239.7504)"><path
             d="m 0,0 c -0.226,1.357 -0.34,2.73 -0.34,4.106 v 14.246 c 0.02,0.891 0.182,2.779 1.36,4.758 1.483,2.495 3.651,3.571 4.417,3.909 2.482,1.094 4.68,0.811 5.608,0.679 1.031,-0.146 3.05,-0.46 4.928,-2.039 0.298,-0.25 1.684,-1.451 2.549,-3.569 0.472,-1.155 0.626,-2.188 0.68,-2.888 V 4.236 c 0,-2.093 0.443,-4.167 1.338,-6.06 0.006,-0.015 0.014,-0.03 0.021,-0.045 1.495,-3.142 3.483,-5.079 4.248,-5.777 1.289,-1.178 3.889,-3.493 7.987,-4.249 2.63,-0.485 4.832,-0.135 6.117,0.17 -0.853,-0.745 -2.104,-1.741 -3.738,-2.719 -2.16,-1.292 -7.419,-4.341 -14.444,-3.738 -7.586,0.651 -12.556,5.161 -14.444,7.137 C 2.262,-6.831 0.517,-2.2 0,0"
             style="fill:#ffffff;fill-opacity:1;fill-rule:nonzero;stroke:none"
             id="path26" /></g><g
           id="g28"
           transform="translate(140.4583,245.0864)"><path
             d="m 0,0 v 14.885 c 0.094,1.64 0.419,4.078 1.529,6.798 1.862,4.56 4.822,7.197 6.118,8.326 4.489,3.909 9.177,5.013 10.365,5.267 1.007,0.216 5.409,1.086 10.876,-0.339 5.148,-1.342 8.623,-4.038 10.365,-5.608 -0.999,0.155 -2.406,0.289 -4.078,0.17 -4.046,-0.288 -6.868,-1.859 -7.477,-2.209 -3.302,-1.899 -5.053,-4.414 -5.607,-5.268 -0.582,-0.896 -1.754,-2.74 -2.209,-5.438 -0.198,-1.17 -0.206,-2.171 -0.17,-2.888 L 19.542,-1.088 C 19.55,-2.03 19.441,-4.378 17.842,-6.525 15.483,-9.694 11.694,-9.99 10.366,-10.094 9.004,-10.2 5.535,-10.314 2.889,-7.715 1.42,-6.272 0.719,-4.732 0.51,-3.807 0.171,-2.566 0,-1.286 0,0"
             style="fill:#ffffff;fill-opacity:1;fill-rule:nonzero;stroke:none"
             id="path30" /></g><g
           id="g32"
           transform="translate(166.7972,221.5683)"><path
             d="m 0,0 v 30.757 4.736 c 0,2.202 0.616,4.374 1.846,6.2 0.062,0.093 0.127,0.186 0.193,0.279 0.603,0.842 1.538,2.121 3.229,3.059 2.798,1.552 5.633,1.042 6.627,0.849 0.986,-0.192 3.197,-0.653 5.098,-2.548 1.835,-1.831 2.333,-3.952 2.549,-4.929 0.341,-1.546 0.169,-2.718 0.169,-3.738 V 0 Z"
             style="fill:#ffffff;fill-opacity:1;fill-rule:nonzero;stroke:none"
             id="path34" /></g><g
           id="g36"
           transform="translate(229.1307,229.6606)"><path
             d="m 0,0 h -5.434 v 12.305 c 0,2.336 -0.165,3.757 -0.494,4.267 -0.359,0.568 -1.198,0.853 -2.514,0.853 h -0.315 c -1.318,0 -2.156,-0.285 -2.515,-0.853 -0.33,-0.51 -0.494,-1.931 -0.494,-4.267 V 0 H -17.2 v 12.305 c 0,2.336 -0.165,3.757 -0.494,4.267 -0.359,0.568 -1.198,0.853 -2.515,0.853 h -0.314 c -1.318,0 -2.156,-0.285 -2.516,-0.853 -0.329,-0.51 -0.493,-1.931 -0.493,-4.267 V 0 h -5.434 v 13.204 c 0,2.933 0.359,4.969 1.077,6.107 1.078,1.707 3.204,2.56 6.378,2.56 h 2.425 c 1.167,0 2.095,-0.142 2.784,-0.427 0.688,-0.285 1.302,-0.771 1.842,-1.459 1.137,1.257 2.709,1.886 4.715,1.886 h 2.291 c 3.173,0 5.299,-0.853 6.376,-2.56 C -0.359,18.173 0,16.152 0,13.248 Z"
             style="fill:#ffffff;fill-opacity:1;fill-rule:nonzero;stroke:none"
             id="path38" /></g><g
           id="g40"
           transform="translate(245.0282,242.7294)"><path
             d="m 0,0 v 1.302 c 0,2.036 -0.974,3.054 -2.919,3.054 h -0.449 c -1.348,0 -2.231,-0.389 -2.65,-1.168 -0.299,-0.509 -0.494,-1.691 -0.584,-3.547 h 6.288 C -0.105,-0.359 0,-0.24 0,0 m 5.614,-9.925 c -0.928,-1.228 -1.976,-2.104 -3.144,-2.627 -1.167,-0.524 -2.635,-0.786 -4.401,-0.786 h -2.156 c -2.575,0 -4.49,0.629 -5.748,1.886 -0.898,0.868 -1.519,1.991 -1.864,3.368 -0.344,1.377 -0.516,3.308 -0.516,5.793 0,2.485 0.172,4.424 0.516,5.816 0.345,1.392 0.966,2.522 1.864,3.391 1.258,1.257 3.173,1.886 5.748,1.886 h 1.752 C 0,8.802 1.871,8.203 3.278,7.006 4.686,5.808 5.39,3.981 5.39,1.527 V -0.539 C 5.39,-1.886 5.098,-2.882 4.514,-3.525 3.93,-4.17 2.858,-4.491 1.303,-4.491 h -7.905 c 0.09,-1.527 0.299,-2.605 0.629,-3.234 0.419,-0.778 1.318,-1.167 2.695,-1.167 h 1.347 c 1.676,0 3.114,0.688 4.311,2.065 z"
             style="fill:#ffffff;fill-opacity:1;fill-rule:nonzero;stroke:none"
             id="path42" /></g><g
           id="g44"
           transform="translate(264.8778,247.0854)"><path
             d="M 0,0 H -2.155 C -3.473,0 -4.311,-0.285 -4.67,-0.853 -5,-1.363 -5.164,-2.784 -5.164,-5.12 v -12.305 h -5.435 v 13.204 c 0,2.933 0.36,4.969 1.078,6.107 1.079,1.707 3.204,2.56 6.377,2.56 H 0 Z"
             style="fill:#ffffff;fill-opacity:1;fill-rule:nonzero;stroke:none"
             id="path46" /></g><g
           id="g48"
           transform="translate(276.1502,229.6606)"><path
             d="m 0,0 h -1.796 c -2.366,0 -4.058,0.479 -5.075,1.437 -1.019,0.958 -1.527,2.544 -1.527,4.76 v 26.632 h 5.434 V 7.859 c 0,-1.437 0.119,-2.335 0.36,-2.694 0.329,-0.479 0.927,-0.719 1.795,-0.719 H 0 Z"
             style="fill:#ffffff;fill-opacity:1;fill-rule:nonzero;stroke:none"
             id="path50" /></g><path
           d="m 285.312,229.661 h -5.435 v 21.512 h 5.435 z m -0.629,29.146 c 0.569,-0.569 0.854,-1.273 0.854,-2.111 0,-0.839 -0.285,-1.549 -0.854,-2.133 -0.569,-0.584 -1.273,-0.876 -2.111,-0.876 -0.838,0 -1.549,0.292 -2.133,0.876 -0.584,0.584 -0.876,1.294 -0.876,2.133 0,0.838 0.292,1.542 0.876,2.111 0.584,0.568 1.295,0.853 2.133,0.853 0.838,0 1.542,-0.285 2.111,-0.853"
           style="fill:#ffffff;fill-opacity:1;fill-rule:nonzero;stroke:none"
           id="path52" /><g
           id="g54"
           transform="translate(307.6756,229.6606)"><path
             d="m 0,0 h -5.434 v 12.305 c 0,2.336 -0.165,3.757 -0.494,4.267 -0.359,0.568 -1.197,0.853 -2.514,0.853 h -0.584 c -1.318,0 -2.156,-0.285 -2.515,-0.853 -0.33,-0.51 -0.494,-1.931 -0.494,-4.267 V 0 h -5.435 v 13.204 c 0,2.933 0.36,4.969 1.078,6.107 1.079,1.707 3.204,2.56 6.377,2.56 h 2.561 c 3.173,0 5.299,-0.853 6.377,-2.56 C -0.358,18.173 0,16.152 0,13.248 Z"
             style="fill:#ffffff;fill-opacity:1;fill-rule:nonzero;stroke:none"
             id="path56" /></g><g
           id="g58"
           transform="translate(323.5741,242.7294)"><path
             d="m 0,0 v 1.302 c 0,2.036 -0.974,3.054 -2.919,3.054 h -0.449 c -1.348,0 -2.231,-0.389 -2.65,-1.168 -0.299,-0.509 -0.494,-1.691 -0.584,-3.547 h 6.288 C -0.105,-0.359 0,-0.24 0,0 m 5.614,-9.925 c -0.928,-1.228 -1.976,-2.104 -3.144,-2.627 -1.167,-0.524 -2.635,-0.786 -4.401,-0.786 h -2.156 c -2.575,0 -4.49,0.629 -5.748,1.886 -0.898,0.868 -1.519,1.991 -1.864,3.368 -0.344,1.377 -0.516,3.308 -0.516,5.793 0,2.485 0.172,4.424 0.516,5.816 0.345,1.392 0.966,2.522 1.864,3.391 1.258,1.257 3.173,1.886 5.748,1.886 h 1.752 C 0,8.802 1.871,8.203 3.278,7.006 4.686,5.808 5.39,3.981 5.39,1.527 V -0.539 C 5.39,-1.886 5.098,-2.882 4.514,-3.525 3.93,-4.17 2.858,-4.491 1.303,-4.491 h -7.905 c 0.09,-1.527 0.299,-2.605 0.629,-3.234 0.419,-0.778 1.318,-1.167 2.695,-1.167 h 1.347 c 1.676,0 3.114,0.688 4.311,2.065 z"
             style="fill:#ffffff;fill-opacity:1;fill-rule:nonzero;stroke:none"
             id="path60" /></g><g
           id="g62"
           transform="translate(348.1395,235.499)"><path
             d="M 0,0 C 0,-1.857 -0.645,-3.339 -1.931,-4.446 -3.219,-5.554 -5.135,-6.108 -7.68,-6.108 h -1.257 c -1.796,0 -3.173,0.195 -4.131,0.584 -0.959,0.389 -2.022,1.212 -3.189,2.47 l 2.919,3.503 c 0.748,-0.839 1.422,-1.4 2.021,-1.684 0.598,-0.285 1.407,-0.427 2.425,-0.427 h 1.122 c 1.708,0 2.561,0.674 2.561,2.021 0,0.419 -0.022,0.741 -0.067,0.966 -0.045,0.224 -0.173,0.449 -0.382,0.674 -0.21,0.224 -0.51,0.396 -0.899,0.516 l -4.491,1.347 c -1.616,0.479 -2.777,1.1 -3.48,1.864 -0.704,0.763 -1.056,1.878 -1.056,3.346 v 0.943 c 0,1.976 0.636,3.472 1.909,4.49 1.273,1.018 2.897,1.528 4.873,1.528 h 1.886 c 1.617,0 2.874,-0.196 3.772,-0.584 0.899,-0.39 1.856,-1.168 2.874,-2.336 L -3.458,9.745 c -0.689,0.748 -1.243,1.242 -1.662,1.482 -0.419,0.239 -1.003,0.359 -1.751,0.359 h -1.527 c -1.347,0 -2.021,-0.523 -2.021,-1.571 0,-0.539 0.082,-0.943 0.247,-1.213 0.164,-0.269 0.546,-0.494 1.146,-0.674 l 4.49,-1.347 C -2.919,6.302 -1.759,5.673 -1.056,4.895 -0.353,4.116 0,2.993 0,1.527 Z"
             style="fill:#ffffff;fill-opacity:1;fill-rule:nonzero;stroke:none"
             id="path64" /></g></g></g></g></svg>
