<?xml version="1.0" encoding="UTF-8" standalone="no"?>
<svg
   xmlns:dc="http://purl.org/dc/elements/1.1/"
   xmlns:cc="http://creativecommons.org/ns#"
   xmlns:rdf="http://www.w3.org/1999/02/22-rdf-syntax-ns#"
   xmlns:svg="http://www.w3.org/2000/svg"
   xmlns="http://www.w3.org/2000/svg"
   xmlns:sodipodi="http://sodipodi.sourceforge.net/DTD/sodipodi-0.dtd"
   xmlns:inkscape="http://www.inkscape.org/namespaces/inkscape"
   version="1.1"
   id="svg2"
   xml:space="preserve"
   width="493.33334"
   height="457.33334"
   viewBox="0 0 493.33334 457.33334"
   sodipodi:docname="MerLines3fav.ai"><metadata
     id="metadata8"><rdf:RDF><cc:Work
         rdf:about=""><dc:format>image/svg+xml</dc:format><dc:type
           rdf:resource="http://purl.org/dc/dcmitype/StillImage" /></cc:Work></rdf:RDF></metadata><defs
     id="defs6"><clipPath
       clipPathUnits="userSpaceOnUse"
       id="clipPath18"><path
         d="M 0,343 H 370 V 0 H 0 Z"
         id="path16" /></clipPath></defs><sodipodi:namedview
     pagecolor="#ffffff"
     bordercolor="#666666"
     borderopacity="1"
     objecttolerance="10"
     gridtolerance="10"
     guidetolerance="10"
     inkscape:pageopacity="0"
     inkscape:pageshadow="2"
     inkscape:window-width="640"
     inkscape:window-height="480"
     id="namedview4" /><g
     id="g10"
     inkscape:groupmode="layer"
     inkscape:label="MerLines3fav"
     transform="matrix(1.3333333,0,0,-1.3333333,0,457.33333)"><g
       id="g12"><g
         id="g14"
         clip-path="url(#clipPath18)"><g
           id="g20"
           transform="translate(245,178)"><path
             d="m 0,0 c 0,-33.137 -26.863,-60 -60,-60 -33.137,0 -60,26.863 -60,60 0,33.137 26.863,60 60,60 C -26.863,60 0,33.137 0,0"
             style="fill:#235ef5;fill-opacity:1;fill-rule:nonzero;stroke:none"
             id="path22" /></g><g
           id="g24"
           transform="translate(138.1953,149.9131)"><path
             d="m 0,0 v 14.875 20.793 c 0.19,2.011 0.722,4.887 2.239,7.998 1.521,3.119 3.364,5.103 3.998,5.758 1.007,1.038 2.857,2.739 5.599,4.159 0.605,0.314 3.24,1.643 7.037,2.239 1.505,0.237 4.328,0.656 7.678,0 5.246,-1.027 8.767,-4.102 10.396,-5.758 -0.916,0.207 -2.31,0.269 -3.998,0.16 -3.73,-0.24 -6.33,-1.608 -7.517,-2.399 -1.264,-0.843 -3.169,-2.304 -4.639,-4.799 -1.318,-2.238 -1.92,-4.318 -2.079,-7.677 L 18.714,0 Z"
             style="fill:#ffffff;fill-opacity:1;fill-rule:nonzero;stroke:none"
             id="path26" /></g><g
           id="g28"
           transform="translate(163.627,167.3477)"><path
             d="m 0,0 c -0.213,1.277 -0.32,2.57 -0.32,3.865 v 13.409 c 0.018,0.839 0.172,2.617 1.279,4.479 1.397,2.349 3.437,3.361 4.159,3.679 2.336,1.03 4.405,0.764 5.278,0.64 0.97,-0.138 2.871,-0.434 4.639,-1.92 0.28,-0.235 1.585,-1.365 2.399,-3.359 0.444,-1.088 0.589,-2.06 0.64,-2.719 V 3.987 c 0,-1.97 0.417,-3.923 1.259,-5.704 0.007,-0.013 0.014,-0.028 0.021,-0.043 1.407,-2.957 3.278,-4.78 3.999,-5.437 1.212,-1.109 3.66,-3.288 7.517,-3.999 2.476,-0.457 4.548,-0.127 5.758,0.16 -0.804,-0.702 -1.982,-1.64 -3.519,-2.56 -2.034,-1.217 -6.983,-4.087 -13.595,-3.518 -7.142,0.613 -11.82,4.857 -13.596,6.718 C 2.129,-6.43 0.486,-2.071 0,0"
             style="fill:#ffffff;fill-opacity:1;fill-rule:nonzero;stroke:none"
             id="path30" /></g><g
           id="g32"
           transform="translate(188.4189,172.3701)"><path
             d="m 0,0 v 14.011 c 0.088,1.544 0.395,3.839 1.439,6.398 1.752,4.293 4.539,6.776 5.758,7.838 4.226,3.679 8.639,4.719 9.757,4.958 0.947,0.203 5.091,1.022 10.236,-0.32 4.846,-1.263 8.118,-3.8 9.757,-5.278 -0.94,0.146 -2.264,0.272 -3.838,0.16 -3.808,-0.271 -6.465,-1.75 -7.038,-2.08 -3.108,-1.787 -4.757,-4.154 -5.278,-4.958 -0.548,-0.843 -1.65,-2.58 -2.079,-5.118 -0.187,-1.102 -0.193,-2.045 -0.16,-2.719 l -0.16,-13.915 c 0.007,-0.888 -0.095,-3.097 -1.6,-5.12 C 14.573,-9.125 11.007,-9.403 9.757,-9.501 8.475,-9.601 5.21,-9.708 2.719,-7.262 1.336,-5.903 0.676,-4.454 0.479,-3.583 0.161,-2.415 0,-1.21 0,0"
             style="fill:#ffffff;fill-opacity:1;fill-rule:nonzero;stroke:none"
             id="path34" /></g><g
           id="g36"
           transform="translate(213.2109,150.2334)"><path
             d="m 0,0 v 28.95 4.458 c 0,2.073 0.579,4.117 1.737,5.837 0.059,0.087 0.119,0.174 0.182,0.262 0.567,0.793 1.448,1.996 3.039,2.879 2.634,1.461 5.303,0.982 6.238,0.8 0.929,-0.181 3.009,-0.615 4.798,-2.399 1.728,-1.723 2.196,-3.719 2.4,-4.639 0.321,-1.455 0.16,-2.559 0.16,-3.519 L 18.554,0 Z"
             style="fill:#ffffff;fill-opacity:1;fill-rule:nonzero;stroke:none"
             id="path38" /></g></g></g></g></svg>
