<svg xmlns="http://www.w3.org/2000/svg" xmlns:xlink="http://www.w3.org/1999/xlink"><defs><clipPath id="clip0"><path fill="currentColor" transform="matrix(1 0 0 -1 0 20)" d="M0 0h20v20H0z"/></clipPath><clipPath id="clip0"><path fill="currentColor" d="M0 0h15v15H0z"/></clipPath><clipPath id="clip0"><path fill="currentColor" d="M0 0h15v15H0z"/></clipPath><clipPath id="clip0"><path fill="currentColor" transform="scale(1.04741 .95023) rotate(45 16.668 40.833)" d="M0 0h47.737v47.737H0z"/></clipPath><clipPath id="clip0"><path fill="currentColor" d="M0 0h15v15H0z"/></clipPath><clipPath id="clip0"><path fill="currentColor" transform="translate(.705)" d="M0 0h12.273v12H0z"/></clipPath><clipPath id="clip0"><path fill="currentColor" d="M0 0h32v32H0z"/></clipPath><clipPath id="clip0"><path fill="currentColor" d="M0 0h14.489v15H0z"/></clipPath><clipPath id="clip0"><path fill="currentColor" transform="translate(.705)" d="M0 0h12.273v12H0z"/></clipPath><clipPath id="clip0"><path fill="currentColor" d="M0 0h15v14.971H0z"/></clipPath><clipPath id="clip0"><path fill="currentColor" transform="translate(.489)" d="M0 0h15v15H0z"/></clipPath><clipPath id="clip0"><path fill="currentColor" d="M0 0h30v30H0z"/></clipPath><clipPath id="clip0"><path fill="currentColor" d="M0 0h15v15H0z"/></clipPath><clipPath id="clip0"><path fill="currentColor" transform="translate(.705)" d="M0 0h12.273v12H0z"/></clipPath><clipPath id="clip0"><path fill="currentColor" d="M0 0h12v12H0z"/></clipPath><clipPath id="a"><path d="M0 0h40v59.68H0zm0 0"/></clipPath><clipPath id="b"><path d="M26 13h40v46.68H26zm0 0"/></clipPath><clipPath id="c"><path d="M79 13h21v46.68H79zm0 0"/></clipPath><clipPath id="d"><path d="M244 29h17.04v23H244zm0 0"/></clipPath><clipPath id="a"><path d="M0 0h40v59.68H0zm0 0"/></clipPath><clipPath id="b"><path d="M26 13h40v46.68H26zm0 0"/></clipPath><clipPath id="c"><path d="M79 13h21v46.68H79zm0 0"/></clipPath><clipPath id="d"><path d="M113 37h30v22.68h-30zm0 0"/></clipPath><clipPath id="e"><path d="M145 37h19v22.68h-19zm0 0"/></clipPath><clipPath id="f"><path d="M167 37h11v22.68h-11zm0 0"/></clipPath><clipPath id="g"><path d="M180 26h10v33.68h-10zm0 0"/></clipPath><clipPath id="h"><path d="M192 29h7v30.68h-7zm0 0"/></clipPath><clipPath id="i"><path d="M203 37h18v22.68h-18zm0 0"/></clipPath><clipPath id="j"><path d="M224 37h19v22.68h-19zm0 0"/></clipPath><clipPath id="k"><path d="M244 37h17.04v22.68H244zm0 0"/></clipPath><symbol overflow="visible" id="c"><path d="M20.813 0h-3.625v-8.219c0-1.558-.114-2.508-.329-2.844-.242-.382-.8-.578-1.672-.578h-.218c-.875 0-1.434.196-1.672.579-.23.335-.344 1.285-.344 2.843V0H9.328v-8.219c0-1.558-.113-2.508-.328-2.844-.242-.382-.805-.578-1.688-.578H7.11c-.875 0-1.433.196-1.671.579-.231.335-.344 1.285-.344 2.843V0H1.469v-8.813c0-1.964.238-3.332.718-4.093.715-1.133 2.141-1.703 4.266-1.703h1.61c.777 0 1.398.097 1.859.28.465.188.879.52 1.234.985.758-.84 1.813-1.265 3.156-1.265h1.532c2.113 0 3.531.57 4.25 1.703.476.761.718 2.117.718 4.062zm0 0"/></symbol><symbol overflow="visible" id="d"><path d="M12.906-2.094c-.625.813-1.332 1.399-2.11 1.75-.78.352-1.76.531-2.937.531H6.422c-1.719 0-3.004-.421-3.844-1.265-.594-.582-1.012-1.332-1.25-2.25-.23-.914-.344-2.203-.344-3.86 0-1.664.114-2.96.344-3.89.238-.934.656-1.692 1.25-2.266.84-.84 2.125-1.265 3.844-1.265h1.172c1.558 0 2.812.402 3.75 1.203.933.804 1.406 2.023 1.406 3.656v1.375c0 .906-.2 1.574-.594 2-.386.43-1.101.64-2.14.64H4.734c.059 1.024.204 1.747.422 2.173.278.511.88.765 1.797.765h.906c1.121 0 2.082-.457 2.875-1.375zm-3.75-6.64v-.86c0-1.363-.652-2.047-1.953-2.047h-.297c-.906 0-1.504.262-1.781.782-.2.343-.332 1.136-.39 2.375h4.202c.145 0 .22-.082.22-.25zm0 0"/></symbol><symbol overflow="visible" id="e"><path d="M8.578-11.64H7.141c-.887 0-1.45.195-1.688.578-.219.335-.328 1.285-.328 2.843V0H1.5v-8.813c0-1.964.238-3.332.719-4.093.715-1.133 2.14-1.703 4.265-1.703h2.094zm0 0"/></symbol><symbol overflow="visible" id="f"><path d="M7.078 0H5.875c-1.574 0-2.707-.316-3.39-.953-.68-.645-1.016-1.707-1.016-3.188v-17.797h3.625V-5.25c0 .96.082 1.559.25 1.797.215.324.617.484 1.203.484h.531zm0 0"/></symbol><symbol overflow="visible" id="g"><path d="M5.063-19.469c.382.375.578.848.578 1.407 0 .562-.196 1.042-.579 1.437-.375.387-.847.578-1.406.578-.562 0-1.039-.191-1.422-.578a1.978 1.978 0 01-.578-1.438c0-.558.192-1.03.578-1.406.383-.383.86-.578 1.422-.578.559 0 1.031.195 1.406.578zM5.484 0H1.86v-14.375h3.625zm0 0"/></symbol><symbol overflow="visible" id="h"><path d="M13.14 0H9.517v-8.219c0-1.558-.114-2.508-.329-2.844-.25-.382-.816-.578-1.687-.578h-.39c-.876 0-1.434.196-1.673.579-.23.335-.343 1.285-.343 2.843V0H1.469v-8.813c0-1.964.238-3.332.718-4.093.715-1.133 2.141-1.703 4.266-1.703h1.703c2.121 0 3.547.57 4.266 1.703.476.761.719 2.117.719 4.062zm0 0"/></symbol><symbol overflow="visible" id="i"><path d="M11.734-3.906c0 1.242-.433 2.238-1.296 2.984C9.582-.18 8.3.188 6.594.188h-.828C4.555.188 3.633.054 3-.204 2.363-.461 1.652-1.016.875-1.86l1.938-2.344c.496.562.945.941 1.343 1.125.403.187.953.281 1.64.281h.75c1.134 0 1.704-.445 1.704-1.344 0-.277-.02-.492-.047-.64a.936.936 0 00-.265-.453c-.137-.145-.336-.258-.594-.344l-3-.906C3.27-6.793 2.492-7.207 2.016-7.72c-.47-.508-.704-1.254-.704-2.234v-.64c0-1.31.426-2.305 1.282-2.985.851-.684 1.937-1.031 3.25-1.031h1.265c1.082 0 1.922.132 2.516.39.602.262 1.242.785 1.922 1.563l-2.125 2.25c-.461-.496-.832-.828-1.11-.985-.28-.164-.675-.25-1.171-.25H6.125c-.906 0-1.36.352-1.36 1.047 0 .367.051.637.157.813.113.18.375.332.781.453l3 .89c1.07.325 1.844.747 2.313 1.266.476.524.718 1.274.718 2.25zm0 0"/></symbol><clipPath id="a"><path d="M79 13h20.809v47H79zm0 0"/></clipPath><clipPath id="b"><path d="M1 68h98.809v23H1zm0 0"/></clipPath><symbol overflow="visible" id="c"><path d="M20.813 0h-3.625v-8.219c0-1.558-.114-2.508-.329-2.844-.242-.382-.8-.578-1.672-.578h-.218c-.875 0-1.434.196-1.672.579-.23.335-.344 1.285-.344 2.843V0H9.328v-8.219c0-1.558-.113-2.508-.328-2.844-.242-.382-.805-.578-1.688-.578H7.11c-.875 0-1.433.196-1.671.579-.231.335-.344 1.285-.344 2.843V0H1.469v-8.813c0-1.964.238-3.332.718-4.093.715-1.133 2.141-1.703 4.266-1.703h1.61c.777 0 1.398.097 1.859.28.465.188.879.52 1.234.985.758-.84 1.813-1.265 3.156-1.265h1.532c2.113 0 3.531.57 4.25 1.703.476.761.718 2.117.718 4.062zm0 0"/></symbol><symbol overflow="visible" id="d"><path d="M12.906-2.094c-.625.813-1.332 1.399-2.11 1.75-.78.352-1.76.531-2.937.531H6.422c-1.719 0-3.004-.421-3.844-1.265-.594-.582-1.012-1.332-1.25-2.25-.23-.914-.344-2.203-.344-3.86 0-1.664.114-2.96.344-3.89.238-.934.656-1.692 1.25-2.266.84-.84 2.125-1.265 3.844-1.265h1.172c1.558 0 2.812.402 3.75 1.203.933.804 1.406 2.023 1.406 3.656v1.375c0 .906-.2 1.574-.594 2-.386.43-1.101.64-2.14.64H4.734c.059 1.024.204 1.747.422 2.173.278.511.88.765 1.797.765h.906c1.121 0 2.082-.457 2.875-1.375zm-3.75-6.64v-.86c0-1.363-.652-2.047-1.953-2.047h-.297c-.906 0-1.504.262-1.781.782-.2.343-.332 1.136-.39 2.375h4.202c.145 0 .22-.082.22-.25zm0 0"/></symbol><symbol overflow="visible" id="e"><path d="M8.578-11.64H7.141c-.887 0-1.45.195-1.688.578-.219.335-.328 1.285-.328 2.843V0H1.5v-8.813c0-1.964.238-3.332.719-4.093.715-1.133 2.14-1.703 4.265-1.703h2.094zm0 0"/></symbol><symbol overflow="visible" id="f"><path d="M7.078 0H5.875c-1.574 0-2.707-.316-3.39-.953-.68-.645-1.016-1.707-1.016-3.188v-17.797h3.625V-5.25c0 .96.082 1.559.25 1.797.215.324.617.484 1.203.484h.531zm0 0"/></symbol><symbol overflow="visible" id="g"><path d="M5.063-19.469c.382.375.578.848.578 1.407 0 .562-.196 1.042-.579 1.437-.375.387-.847.578-1.406.578-.562 0-1.039-.191-1.422-.578a1.978 1.978 0 01-.578-1.438c0-.558.192-1.03.578-1.406.383-.383.86-.578 1.422-.578.559 0 1.031.195 1.406.578zM5.484 0H1.86v-14.375h3.625zm0 0"/></symbol><symbol overflow="visible" id="h"><path d="M13.14 0H9.517v-8.219c0-1.558-.114-2.508-.329-2.844-.25-.382-.816-.578-1.687-.578h-.39c-.876 0-1.434.196-1.673.579-.23.335-.343 1.285-.343 2.843V0H1.469v-8.813c0-1.964.238-3.332.718-4.093.715-1.133 2.141-1.703 4.266-1.703h1.703c2.121 0 3.547.57 4.266 1.703.476.761.719 2.117.719 4.062zm0 0"/></symbol><symbol overflow="visible" id="i"><path d="M11.734-3.906c0 1.242-.433 2.238-1.296 2.984C9.582-.18 8.3.188 6.594.188h-.828C4.555.188 3.633.054 3-.204 2.363-.461 1.652-1.016.875-1.86l1.938-2.344c.496.562.945.941 1.343 1.125.403.187.953.281 1.64.281h.75c1.134 0 1.704-.445 1.704-1.344 0-.277-.02-.492-.047-.64a.936.936 0 00-.265-.453c-.137-.145-.336-.258-.594-.344l-3-.906C3.27-6.793 2.492-7.207 2.016-7.72c-.47-.508-.704-1.254-.704-2.234v-.64c0-1.31.426-2.305 1.282-2.985.851-.684 1.937-1.031 3.25-1.031h1.265c1.082 0 1.922.132 2.516.39.602.262 1.242.785 1.922 1.563l-2.125 2.25c-.461-.496-.832-.828-1.11-.985-.28-.164-.675-.25-1.171-.25H6.125c-.906 0-1.36.352-1.36 1.047 0 .367.051.637.157.813.113.18.375.332.781.453l3 .89c1.07.325 1.844.747 2.313 1.266.476.524.718 1.274.718 2.25zm0 0"/></symbol><clipPath id="a"><path d="M79 13h20.809v47H79zm0 0"/></clipPath><clipPath id="b"><path d="M1 68h98.809v23H1zm0 0"/></clipPath><clipPath clipPathUnits="userSpaceOnUse" id="a"><path d="M0 343h370V0H0z"/></clipPath><clipPath clipPathUnits="userSpaceOnUse" id="a"><path d="M0 442.511h445.166V0H0z"/></clipPath><clipPath clipPathUnits="userSpaceOnUse" id="a"><path d="M0 425.913h428.468V0H0z"/></clipPath></defs><symbol id="safari-pinned-tab" viewBox="0 0 400 400"><path d="M178 1.1C103.9 9.4 40 58.8 13.2 128.3c-4.3 11-9.2 29.3-11.3 42.2C-.2 182.6.1 220 2.3 232c7.8 42.4 25.5 77.7 53.5 106.4 23.8 24.4 49.4 40.7 80.2 51 50.6 16.8 103.2 13.6 150.8-9.4 20.6-9.9 35.5-20.5 52.5-37 17.4-16.8 29.4-33.4 40.3-55.5 34-69.2 24.8-151.6-23.6-212.5-7.7-9.6-24.5-26.3-33.5-33.1-29.6-22.6-65-36.8-101.7-40.8C209.7-.2 189-.1 178 1.1zm-44 107.1c7.5 1.4 18.2 6.5 26 12.4l6.5 4.9-10.1.6c-15.4 1-25.1 4.8-34.6 13.7-5.7 5.4-10.1 11.9-13 19.8-2.2 5.8-2.3 6.5-2.6 70.1l-.3 64.3h-62l.3-63.8.3-63.7 2.4-7c12.6-37.9 47.9-58.7 87.1-51.3zm170.5 1.8c8.5 2.7 15.1 6 23 11.4l6 4.1-9 .6c-9 .6-18.3 2.8-24 5.6-10.2 5.2-20.4 16.4-24.6 27.1-2.1 5.4-2.3 7.6-2.9 37.7-.6 30.7-.7 32.2-2.9 37.3-5.1 11.3-15.6 16.8-31 16-10-.5-15.7-3-21-9.5-5.8-7-6.4-10.2-6.8-39.3-.4-21.6-.2-28.3 1.1-36 4.7-26.8 25.2-48.6 53-56.1 9.8-2.7 29-2.1 39.1 1.1zm-139.3 39.1c10.3 2.2 16.8 7.3 21 16.4 2.2 4.8 2.3 6.3 2.8 36 .6 33.8.7 34.5 7.4 46 3.8 6.5 14.6 16.7 21.6 20.4 7.6 4 18.7 6.5 26 5.6l5.5-.6-3.5 3.1c-4.8 4.1-22.1 12.6-29.5 14.4-33.7 8.3-66.7-8.6-82.9-42.3-5.4-11.2-5.7-14.6-5.4-48.3l.3-30.3 3-5.4c3.1-5.7 7.7-10 13.5-12.8 7-3.3 12.2-3.9 20.2-2.2zm173 1.7c6.4 2.8 11.3 7.6 14.5 14l2.8 5.7.3 60.7.3 60.8h-62.2l.3-59.8.3-59.7 3.3-6.7c3.9-7.9 10.4-14.2 17.1-16.3 6-1.9 17.5-1.3 23.3 1.3z"/></symbol><symbol id="arrow-angle" viewBox="0 0 20 20"><g clip-path="url(#clip0)"><path d="M17.346 14.097L10 9.404l-7.346 4.693A1.725 1.725 0 01.796 11.19l8.275-5.287a1.723 1.723 0 011.858 0l8.274 5.287a1.725 1.725 0 11-1.857 2.907z" fill="currentColor"/></g></symbol><symbol id="arrow-filter" viewBox="0 0 8 8"><path d="M8 2.472l-.943-.944L4 4.585.943 1.528 0 2.472l4 4 4-4z" fill="currentColor"/></symbol><symbol id="arrow-open" viewBox="0 0 10 10"><path d="M10 3.09L8.82 1.91 5 5.731l-3.82-3.82L0 3.09l5 5 5-5z" fill="currentColor"/></symbol><symbol id="arrow-slider" viewBox="0 0 20 20"><path d="M20 8.889H4.256l3.983-3.984-1.572-1.572L0 10l6.667 6.667 1.572-1.573-3.983-3.983H20V8.889z" fill="currentColor"/></symbol><symbol id="arrow" viewBox="0 0 12 8"><path d="M12 4.667H2.553l2.39 2.39L4 8 0 4l4-4 .943.943-2.39 2.39H12v1.334z" fill="currentColor"/></symbol><symbol id="baggage" viewBox="0 0 20 20"><path d="M12.569 4.974V3.797c0-.882-.718-1.6-1.6-1.6H9.03c-.882 0-1.6.718-1.6 1.6v1.177H5.583v12.829h8.834V4.974H12.57zm-1.184 0h-2.77V3.797c0-.23.187-.416.416-.416h1.938c.23 0 .416.187.416.416v1.177zM17.23 4.974H15.6v12.829h1.63a2.773 2.773 0 002.77-2.77V7.744a2.773 2.773 0 00-2.77-2.77zM4.4 4.974H2.77A2.773 2.773 0 000 7.744v7.289a2.773 2.773 0 002.77 2.77H4.4V4.974z" fill="currentColor"/></symbol><symbol id="baggageLg" viewBox="0 0 35 20"><path d="M27.569 4.974V3.797c0-.882-.718-1.6-1.6-1.6H24.03c-.882 0-1.6.718-1.6 1.6v1.177h-1.848v12.829h8.834V4.974H27.57zm-1.184 0h-2.77V3.797c0-.23.187-.416.416-.416h1.938c.23 0 .416.187.416.416v1.177zM32.23 4.974H30.6v12.829h1.63a2.773 2.773 0 002.77-2.77V7.744a2.773 2.773 0 00-2.77-2.77zM19.4 4.974h-1.63A2.773 2.773 0 0015 7.744v7.289a2.773 2.773 0 002.77 2.77h1.63V4.974zM5.968 0H4.032c-.888 0-1.61.722-1.61 1.61V3.52h1.192V1.61c0-.23.188-.417.418-.417h1.936c.23 0 .418.187.418.417V3.52h1.192V1.61C7.578.722 6.856 0 5.968 0zM8.698 4.712H1.302c-.62 0-1.125.504-1.125 1.125v10.34c0 .62.505 1.124 1.125 1.124h7.396c.62 0 1.125-.504 1.125-1.125V5.836c0-.62-.504-1.124-1.125-1.124zM1.302 18.494c-.045 0-.09-.002-.134-.004v.914a.596.596 0 101.193 0v-.91H1.302zM8.698 18.494H7.639v.91a.596.596 0 101.193 0v-.914a2.288 2.288 0 01-.134.004z" fill="currentColor"/></symbol><symbol id="bus" viewBox="0 0 20 25"><path d="M10 0C4.475 0 0 .658 0 5.263v13.158a4.01 4.01 0 001.25 2.921v2.342c0 .724.562 1.316 1.25 1.316h1.25C4.444 25 5 24.408 5 23.684v-1.316h10v1.316c0 .724.556 1.316 1.25 1.316h1.25c.688 0 1.25-.592 1.25-1.316v-2.342a4.01 4.01 0 001.25-2.92V5.262C20 .658 15.525 0 10 0zM4.375 19.737c-1.037 0-1.875-.882-1.875-1.974s.838-1.974 1.875-1.974c1.038 0 1.875.882 1.875 1.974s-.838 1.974-1.875 1.974zm11.25 0c-1.037 0-1.875-.882-1.875-1.974s.838-1.974 1.875-1.974c1.038 0 1.875.882 1.875 1.974s-.837 1.974-1.875 1.974zm1.875-7.895h-15V5.263h15v6.58z" fill="currentColor"/></symbol><symbol id="calendar" viewBox="0 0 12 12"><path d="M8.91 5.4H7.681v1.2h1.227V5.4zM6.455 5.4H5.227v1.2h1.228V5.4zM4 5.4H2.773v1.2H4V5.4z" fill="currentColor"/><path d="M10.136 1.2h-.613V0H8.296v1.2h-4.91V0H2.16v1.2h-.613C.864 1.2.324 1.74.324 2.4l-.006 8.4c0 .66.546 1.2 1.228 1.2h8.59c.675 0 1.228-.54 1.228-1.2V2.4c0-.66-.553-1.2-1.228-1.2zm0 9.6h-8.59V4.2h8.59v6.6z" fill="currentColor"/></symbol><symbol id="checkbox" viewBox="0 0 15 15"><path d="M13.333 0H1.667C.75 0 0 .75 0 1.667v11.666C0 14.25.75 15 1.667 15h11.666C14.25 15 15 14.25 15 13.333V1.667C15 .75 14.25 0 13.333 0zm-7.5 11.667L1.667 7.5l1.166-1.167 3 3L12.167 3l1.166 1.167-7.5 7.5z" fill="currentColor"/></symbol><symbol id="close" viewBox="0 0 15 15"><g clip-path="url(#clip0)"><path d="M8.874 7.512l5.841-5.84A.97.97 0 1013.341.296L7.5 6.138 1.66.298A.97.97 0 10.284 1.67l5.84 5.841-5.84 5.841a.97.97 0 101.374 1.374l5.84-5.84 5.842 5.84a.97.97 0 001.374 0 .97.97 0 000-1.374l-5.84-5.84z" fill="currentColor"/></g></symbol><symbol id="departures" viewBox="0 0 15 15"><g clip-path="url(#clip0)" fill="currentColor"><path d="M14.54 12.47H.485v1.479H14.54v-1.48zM14.962 5.541a1.108 1.108 0 00-1.358-.784L9.672 5.811l-5.104-4.76-1.428.385 3.063 5.308-3.677.983-1.453-1.143L0 6.873l1.346 2.334.566.98L3.1 9.87l3.932-1.054 3.214-.862 3.932-1.054c.591-.16.943-.766.784-1.358z"/></g></symbol><symbol id="double-arrow" viewBox="0 0 17 17"><path d="M14.217 5.717l-.732.733 1.533 1.533H1.982L3.515 6.45l-.732-.733L0 8.5l2.783 2.783.732-.733-1.532-1.532h13.034l-1.532 1.532.732.733L17 8.5l-2.783-2.783z" fill="currentColor"/></symbol><symbol id="download" viewBox="0 0 71 65"><g clip-path="url(#clip0)"><path d="M29.755 57.68h7.42l11.826-21.342 14.79.276c2.702.05 4.922-1.922 4.922-4.374s-2.22-4.425-4.922-4.375l-14.79.276L37.175 6.8h-7.42l5.661 21.595-15.223.284-3.995-5.049H9.49l4.567 8.61-4.567 8.61h6.708l3.995-5.05 15.223.284-5.661 21.596z" fill="currentColor"/><path d="M29.755 57.68h7.42l11.826-21.342 14.79.276c2.702.05 4.922-1.922 4.922-4.374H14.057L9.49 40.85h6.707l3.996-5.05 15.223.285-5.661 21.595z" fill="currentColor"/></g></symbol><symbol id="edit" viewBox="0 0 11 10"><path d="M.727 7.916V10h2.131l6.288-6.148-2.13-2.084L.726 7.916zM10.788 1.46L9.461.163a.579.579 0 00-.804 0l-1.04 1.016 2.131 2.084 1.04-1.017a.548.548 0 000-.786z" fill="currentColor"/></symbol><symbol id="facebook" viewBox="0 0 15 15"><path d="M13.5 0h-12C.675 0 0 .675 0 1.5v12c0 .825.675 1.5 1.5 1.5h12c.825 0 1.5-.675 1.5-1.5v-12c0-.825-.675-1.5-1.5-1.5zm-.75 1.5v2.25h-1.5c-.45 0-.75.3-.75.75V6h2.25v2.25H10.5v5.25H8.25V8.25h-1.5V6h1.5V4.125C8.25 2.7 9.45 1.5 10.875 1.5h1.875z" fill="currentColor"/></symbol><symbol id="filter" viewBox="0 0 15 15"><g clip-path="url(#clip0)"><path d="M5.713 7.088a.926.926 0 01.244.627v6.82c0 .411.496.62.789.331l1.903-2.18c.254-.306.395-.457.395-.76v-4.21c0-.231.088-.455.243-.626l5.46-5.925A.695.695 0 0014.237 0H.764a.694.694 0 00-.51 1.165l5.46 5.923z" fill="currentColor"/></g></symbol><symbol id="germany" viewBox="0 0 13 12"><g clip-path="url(#clip0)"><path d="M10.293 0H3.389C1.906 0 .705 1.175.705 2.625V4h12.272V2.625c0-1.45-1.202-2.625-2.684-2.625z" fill="currentColor"/><path d="M.705 9.375C.705 10.825 1.907 12 3.389 12h6.904c1.482 0 2.684-1.175 2.684-2.625V8H.705v1.375z" fill="currentColor"/><path d="M12.977 4H.705v4h12.272V4z" fill="currentColor"/></g></symbol><symbol id="history" viewBox="0 0 15 15"><path d="M7.857 4.643v3.571l3.057 1.815.515-.868-2.5-1.482V4.643H7.857z" fill="currentColor"/><path d="M8.568 1.071A6.424 6.424 0 002.143 7.5H0l2.782 2.782.05.104L5.714 7.5H3.571a5 5 0 0110 0 5 5 0 01-5 5 4.98 4.98 0 01-3.532-1.468l-1.01 1.01a6.388 6.388 0 004.539 1.887A6.43 6.43 0 0015 7.5a6.43 6.43 0 00-6.432-6.429z" fill="currentColor"/></symbol><symbol id="instagram" viewBox="0 0 15 15"><path d="M13.5 0h-12C.675 0 0 .675 0 1.5v12c0 .825.675 1.5 1.5 1.5h12c.825 0 1.5-.675 1.5-1.5v-12c0-.825-.675-1.5-1.5-1.5zm-6 4.5c1.65 0 3 1.35 3 3s-1.35 3-3 3-3-1.35-3-3 1.35-3 3-3zm-5.625 9c-.225 0-.375-.15-.375-.375V6.75h1.575C3 6.975 3 7.275 3 7.5 3 9.975 5.025 12 7.5 12S12 9.975 12 7.5c0-.225 0-.525-.075-.75H13.5v6.375c0 .225-.15.375-.375.375H1.875zM13.5 3.375c0 .225-.15.375-.375.375h-1.5c-.225 0-.375-.15-.375-.375v-1.5c0-.225.15-.375.375-.375h1.5c.225 0 .375.15.375.375v1.5z" fill="currentColor"/></symbol><symbol id="like" viewBox="0 0 20 20"><path d="M14.688 1.172c-1.086 0-2.08.344-2.958 1.022-.84.65-1.4 1.479-1.73 2.08-.33-.601-.89-1.43-1.73-2.08a4.735 4.735 0 00-2.957-1.022C2.283 1.172 0 3.649 0 6.934c0 3.55 2.85 5.977 7.163 9.653.732.624 1.563 1.332 2.426 2.087a.624.624 0 00.822 0c.864-.755 1.694-1.463 2.427-2.087C17.15 12.91 20 10.483 20 6.934c0-3.285-2.284-5.762-5.313-5.762z" fill="currentColor"/></symbol><symbol id="loading" viewBox="0 0 32 32"><g clip-path="url(#clip0)" fill="currentColor"><path d="M7.233 10.953L5.42 12.766c1.785-5.847 7.97-9.14 13.817-7.356a11.068 11.068 0 015.592 3.903l1.604-1.215C22.076 2.338 13.876 1.2 8.116 5.558a13.075 13.075 0 00-4.803 7.28l-1.89-1.885L0 12.376l4.33 4.33 4.33-4.33-1.427-1.423zM27.67 15.273l-4.33 4.33 1.424 1.424 1.834-1.833c-1.769 5.856-7.95 9.17-13.805 7.401a11.076 11.076 0 01-5.785-4.128l-1.634 1.176a13.01 13.01 0 008.512 5.275 13.06 13.06 0 0014.802-9.774l1.884 1.883L32 19.603l-4.33-4.33zm-.05 2.901l.051-.051.075.075-.126-.024z"/></g></symbol><symbol id="logout" viewBox="0 0 15 15"><path d="M13.333 0H1.667C.746 0 0 .746 0 1.667V5h1.667V1.667h11.666v11.666H1.667V10H0v3.333C0 14.254.746 15 1.667 15h11.666c.921 0 1.667-.746 1.667-1.667V1.667C15 .746 14.254 0 13.333 0z" fill="currentColor"/><path d="M5.904 10.488l1.18 1.179L11.25 7.5 7.083 3.333l-1.179 1.18 2.154 2.154H0v1.666h8.058l-2.154 2.155z" fill="currentColor"/></symbol><symbol id="notice" viewBox="0 0 15 15"><g clip-path="url(#clip0)" fill="currentColor"><path d="M13.036 6.184h1.453c-.11-2.41-1.257-4.53-2.996-5.902l-1.035 1.071a6.455 6.455 0 012.578 4.831zM4.034 1.357L2.996.282C1.256 1.654.109 3.774 0 6.184h1.452a6.433 6.433 0 012.582-4.827zM11.602 6.56c0-2.312-1.188-4.24-3.268-4.752v-.511c0-.624-.487-1.128-1.09-1.128-.602 0-1.089.504-1.089 1.128v.511c-2.08.512-3.268 2.44-3.268 4.752v3.76l-1.453 1.503v.752h11.62v-.752l-1.452-1.504V6.56zM7.244 14.83c.102 0 .2-.01.294-.03a1.48 1.48 0 001.046-.886c.073-.18.113-.376.113-.587H5.792c0 .83.65 1.504 1.452 1.504z"/></g></symbol><symbol id="plane" viewBox="0 0 25 25"><path d="M25 17.5V15L14.474 8.75V1.875C14.474.837 13.592 0 12.5 0s-1.974.837-1.974 1.875V8.75L0 15v2.5l10.526-3.125v6.875l-2.631 1.875V25l4.605-1.25L17.105 25v-1.875l-2.631-1.875v-6.875L25 17.5z" fill="currentColor"/></symbol><symbol id="question" viewBox="0 0 15 15"><path d="M7.5 15a1.758 1.758 0 100-3.516A1.758 1.758 0 007.5 15zM7.5 0C4.98 0 2.93 2.05 2.93 4.57v.44h3.515v-.44a1.056 1.056 0 012.11 0c0 .31-.136.604-.374.805L5.742 7.45v3.156h3.516v-1.53l1.2-1.021A4.564 4.564 0 0012.07 4.57C12.07 2.05 10.02 0 7.5 0z" fill="currentColor"/></symbol><symbol id="russia" viewBox="0 0 13 12"><g clip-path="url(#clip0)"><path d="M10.48.006H3.202C1.807.101.705 1.236.705 2.625v1.377h12.272V2.625c0-1.388-1.102-2.524-2.497-2.619z" fill="currentColor"/><path d="M.705 9.375c0 1.388 1.102 2.524 2.497 2.619h7.278c1.395-.095 2.497-1.23 2.497-2.619V7.998H.705v1.377z" fill="currentColor"/><path d="M12.977 4.002H.705v3.996h12.272V4.002z" fill="currentColor"/></g></symbol><symbol id="s7" viewBox="0 0 64 20"><path d="M32.412 4.814h1.718v1.492h-1.718V4.814zm0 2.36h1.719v6.274h-1.719V7.174zM36.746 8.177h.038c.392-.71.834-1.077 1.592-1.077.189 0 .303.013.404.05v1.455h-.038c-1.124-.11-1.933.464-1.933 1.785v3.058h-1.718V7.174h1.655v1.003zM42.127 4.814h1.719v1.492h-1.719V4.814zm0 2.36h1.719v6.274h-1.718V7.174zM46.486 8.03h.038c.442-.673 1.036-1.027 1.92-1.027 1.34 0 2.236.978 2.236 2.348v4.097h-1.718V9.595c0-.672-.404-1.15-1.124-1.15-.758 0-1.314.588-1.314 1.444v3.559h-1.718V7.174h1.68v.856zM51.388 10.305c0-1.86 1.3-3.302 3.196-3.302 2.085 0 3.196 1.54 3.196 3.779h-4.7c.127.966.683 1.565 1.656 1.565.67 0 1.06-.293 1.25-.77h1.693c-.24 1.113-1.263 2.054-2.93 2.054-2.149 0-3.361-1.455-3.361-3.326zm1.718-.673h2.88c-.05-.795-.593-1.345-1.377-1.345-.91 0-1.352.526-1.503 1.345zM58.176 11.418h1.592c.114.721.644 1.04 1.415 1.04.758 0 1.188-.282 1.188-.722 0-.6-.822-.66-1.706-.832-1.162-.22-2.3-.526-2.3-1.896 0-1.357 1.163-2.005 2.641-2.005 1.706 0 2.653.819 2.78 2.079h-1.554c-.076-.673-.518-.918-1.251-.918-.67 0-1.112.245-1.112.698 0 .538.86.587 1.781.77 1.087.22 2.287.514 2.287 1.981 0 1.26-1.112 2.018-2.729 2.018-1.882 0-2.93-.88-3.032-2.213zM28.358 4.814h-2l-3.615 8.634h2.047l.67-1.774h3.688l.682 1.774h2.06l-3.532-8.634zm-2.406 5.405l1.326-3.67 1.365 3.67h-2.691zM41.168 4.814h-1.719v8.634h1.719V4.814z" fill="currentColor"/><path d="M20.513 9.996c0 5.485-4.589 9.927-10.253 9.927C4.594 19.923 0 15.48 0 9.996 0 4.511 4.594.066 10.26.066c5.664 0 10.253 4.445 10.253 9.93z" fill="currentColor"/><path d="M9.512 4.814c-1.615 0-2.663.086-3.422.359-1.275.48-2.155 1.488-2.155 2.812 0 1.103.53 1.902 2.065 2.82 1.638.962 1.965 1.28 1.965 1.859 0 .634-.641 1.356-2.292 1.356-.577 0-1.445-.078-2-.21l-.264-.064c-.147.383-.483 1.29-.585 1.619l.262.074c.5.154 1.683.274 2.531.274 2.822 0 4.506-1.65 4.506-3.378 0-1.062-.498-1.87-2.181-2.886-.845-.503-1.275-.829-1.536-1.081a.94.94 0 01-.236-.667c0-.197.046-.425.18-.592.146-.207.413-.338.775-.447.372-.119 1.06-.122 2.133-.122h.999l.713-1.726H9.512zm7.547 0h-5.018l-.713 1.726h1.663c1.12 0 1.335-.024 1.616-.024-.406.899-2.851 6.931-2.851 6.931h2.07s3.095-7.509 3.424-8.296c.09-.176.045-.337-.19-.337z" fill="currentColor"/></symbol><symbol id="search" viewBox="0 0 15 15"><path d="M10.72 9.434h-.681l-.236-.236a5.522 5.522 0 001.346-3.623 5.574 5.574 0 10-5.574 5.574 5.54 5.54 0 003.623-1.342l.236.236v.677L13.722 15 15 13.722l-4.28-4.288zm-5.145 0a3.86 3.86 0 110-7.72 3.86 3.86 0 010 7.72z" fill="currentColor"/></symbol><symbol id="share" viewBox="0 0 15 15"><g clip-path="url(#clip0)"><path d="M15 7.495L8.766.659v4.078H7.441A7.44 7.44 0 000 12.178v2.162l.589-.646a10.563 10.563 0 017.802-3.442h.375v4.078L15 7.495z" fill="currentColor"/></g></symbol><symbol id="star" viewBox="0 0 16 15"><g clip-path="url(#clip0)"><path d="M15.455 5.759a.682.682 0 00-.55-.465l-4.356-.632L8.6.714a.682.682 0 00-1.223 0L5.43 4.662l-4.356.632a.682.682 0 00-.378 1.164L3.847 9.53l-.744 4.34a.682.682 0 00.99.718l3.896-2.048 3.896 2.048a.682.682 0 00.983-.756L12.13 9.53l3.153-3.072a.682.682 0 00.172-.7z" fill="currentColor"/></g></symbol><symbol id="switch" viewBox="0 0 15 15"><path d="M9 9.742V15h1.5V9.742h2.25l-3-2.992-3 2.992H9zM4.5 5.258H2.25l3 2.992 3-2.992H6V0H4.5v5.258z" fill="currentColor"/></symbol><symbol id="telegram" viewBox="0 0 30 30"><g clip-path="url(#clip0)"><path d="M11.771 18.976l-.496 6.98c.71 0 1.018-.305 1.386-.671l3.329-3.181 6.897 5.051c1.265.705 2.157.334 2.498-1.164l4.527-21.215.002-.001c.401-1.87-.677-2.601-1.909-2.142L1.392 12.82c-1.816.705-1.788 1.718-.308 2.177l6.803 2.116 15.804-9.889c.744-.492 1.42-.22.864.273L11.771 18.976z" fill="currentColor"/></g></symbol><symbol id="train" viewBox="0 0 20 25"><path d="M10 0C5 0 0 .658 0 5.263v12.5c0 2.54 1.962 4.605 4.375 4.605L2.5 24.342V25h2.787l2.5-2.632H12.5L15 25h2.5v-.658l-1.875-1.974c2.413 0 4.375-2.065 4.375-4.605v-12.5C20 .658 15.525 0 10 0zM4.375 19.737c-1.038 0-1.875-.882-1.875-1.974s.837-1.974 1.875-1.974 1.875.882 1.875 1.974-.838 1.974-1.875 1.974zm4.375-9.21H2.5V5.262h6.25v5.263zm6.875 9.21c-1.037 0-1.875-.882-1.875-1.974s.838-1.974 1.875-1.974c1.038 0 1.875.882 1.875 1.974s-.838 1.974-1.875 1.974zm1.875-9.21h-6.25V5.262h6.25v5.263z" fill="currentColor"/></symbol><symbol id="transfer" viewBox="0 0 15 15"><g clip-path="url(#clip0)" fill="currentColor"><path d="M14.531 9.375a.469.469 0 01-.469-.469 3.285 3.285 0 00-3.28-3.281H6.25v2.031a.47.47 0 01-.793.339L2.02 4.714a.468.468 0 010-.678L5.457.755a.47.47 0 01.793.339v2.031h3.906A4.85 4.85 0 0115 7.969v.937c0 .259-.21.469-.469.469z"/><path d="M8.75 13.906v-2.031H4.844A4.85 4.85 0 010 7.031v-.937a.469.469 0 01.938 0 3.285 3.285 0 003.28 3.281H8.75V7.344a.47.47 0 01.793-.339l3.437 3.281a.468.468 0 010 .678l-3.438 3.281a.47.47 0 01-.792-.339z"/></g></symbol><symbol id="united-kingdom" viewBox="0 0 13 12"><g clip-path="url(#clip0)"><path d="M10.293 12H3.389C1.907 12 .705 10.825.705 9.375v-6.75C.705 1.175 1.907 0 3.389 0h6.904c1.482 0 2.684 1.175 2.684 2.625v6.75c0 1.45-1.202 2.625-2.684 2.625z" fill="currentColor"/><path d="M12.977 9.375v-.576l-1.903-1.22h1.903v-.632H7.81V12h.646V8.167l4.097 2.625c.145-.221.257-.465.33-.724M.885 10.323c.066.165.147.322.244.469l4.097-2.625V12h.646V6.947H.705v.632h1.903L.705 8.799v.576c0 .1.006.2.017.298M.705 2.714v.488l1.903 1.22H.705v.63h5.167V0h-.646v3.833L1.13 1.208a2.58 2.58 0 00-.35.8M12.793 1.668a2.594 2.594 0 00-.24-.46L8.456 3.833V0H7.81v5.053h5.167V4.42h-1.903l1.903-1.22v-.576c0-.105-.006-.208-.018-.309" fill="currentColor"/><path d="M7.81 0H5.872v5.053H.705v1.894h5.167V12H7.81V6.947h5.167V5.053H7.81V0z" fill="currentColor"/><path d="M4.022 7.579l-3.3 2.094c.026.227.081.445.163.65l4.323-2.744H4.022zM8.961 7.579l3.922 2.489c.061-.221.094-.453.094-.693l-2.83-1.796H8.962zM4.58 4.421L.78 2.01a2.575 2.575 0 00-.075.616v.09L3.394 4.42H4.58zM9.642 4.421l3.317-2.105a2.56 2.56 0 00-.166-.648L8.456 4.421h1.186z" fill="currentColor"/></g></symbol><symbol id="user-off" viewBox="0 0 13 12"><path d="M6.841 6.75c-2.044 0-6.136 1.001-6.136 3V12h12.272V9.75c0-1.999-4.092-3-6.136-3zm4.679 3.825H2.162V9.75c0-.484 2.397-1.575 4.679-1.575 2.282 0 4.679 1.091 4.679 1.575v.825zM6.84 6c1.696 0 3.07-1.346 3.07-3 0-1.657-1.374-3-3.07-3-1.694 0-3.067 1.343-3.067 3 0 1.654 1.373 3 3.068 3zm0-4.575c.89 0 1.612.705 1.612 1.575S7.73 4.575 6.84 4.575 5.23 3.87 5.23 3s.72-1.575 1.61-1.575z" fill="currentColor"/></symbol><symbol id="user-on" viewBox="0 0 12 12"><g clip-path="url(#clip0)" fill="currentColor"><path d="M6 6.75c-1.999 0-6 1.001-6 3V12h12V9.75c0-1.999-4.001-3-6-3zM6 6a3 3 0 10.002-6.002A3 3 0 006 6z"/></g></symbol><symbol id="visibility-off" viewBox="0 0 24 24"><path d="M12 6a9.77 9.77 0 018.82 5.5 9.647 9.647 0 01-2.41 3.12l1.41 1.41c1.39-1.23 2.49-2.77 3.18-4.53C21.27 7.11 17 4 12 4c-1.27 0-2.49.2-3.64.57l1.65 1.65C10.66 6.09 11.32 6 12 6zm-1.07 1.14L13 9.21c.57.25 1.03.71 1.28 1.28l2.07 2.07c.08-.34.14-.7.14-1.07C16.5 9.01 14.48 7 12 7c-.37 0-.72.05-1.07.14zM2.01 3.87l2.68 2.68A11.738 11.738 0 001 11.5C2.73 15.89 7 19 12 19c1.52 0 2.98-.29 4.32-.82l3.42 3.42 1.41-1.41L3.42 2.45 2.01 3.87zm7.5 7.5l2.61 2.61c-.04.01-.08.02-.12.02a2.5 2.5 0 01-2.5-2.5c0-.05.01-.08.01-.13zm-3.4-3.4l1.75 1.75a4.6 4.6 0 00-.36 1.78 4.507 4.507 0 006.27 4.14l.98.98c-.88.24-1.8.38-2.75.38a9.77 9.77 0 01-8.82-5.5c.7-1.43 1.72-2.61 2.93-3.53z"/></symbol><symbol id="visibility" viewBox="0 0 24 24"><path d="M12 6a9.77 9.77 0 018.82 5.5C19.17 14.87 15.79 17 12 17s-7.17-2.13-8.82-5.5A9.77 9.77 0 0112 6m0-2C7 4 2.73 7.11 1 11.5 2.73 15.89 7 19 12 19s9.27-3.11 11-7.5C21.27 7.11 17 4 12 4zm0 5a2.5 2.5 0 010 5 2.5 2.5 0 010-5m0-2c-2.48 0-4.5 2.02-4.5 4.5S9.52 16 12 16s4.5-2.02 4.5-4.5S14.48 7 12 7z"/></symbol><symbol id="vkontakte" viewBox="0 0 30 30"><path d="M24.894 16.035c-.485-.613-.346-.885 0-1.433.006-.006 4.01-5.538 4.422-7.415h.003c.205-.684 0-1.187-.991-1.187h-3.28c-.835 0-1.22.431-1.427.914 0 0-1.67 3.997-4.032 6.588-.763.75-1.115.99-1.531.99-.206 0-.524-.24-.524-.925v-6.38c0-.82-.234-1.187-.925-1.187H11.45c-.524 0-.835.383-.835.739 0 .777 1.181.956 1.304 3.144v4.746c0 1.04-.189 1.231-.607 1.231-1.116 0-3.822-4.014-5.426-8.607C5.564 6.36 5.248 6 4.408 6H1.124C.189 6.001 0 6.432 0 6.915c0 .853 1.115 5.091 5.185 10.691C7.898 21.43 11.717 23.5 15.193 23.5c2.088 0 2.343-.46 2.343-1.251 0-3.653-.189-3.998.858-3.998.485 0 1.32.24 3.27 2.084 2.228 2.186 2.595 3.165 3.842 3.165h3.28c.935 0 1.409-.46 1.136-1.367-.623-1.91-4.838-5.835-5.028-6.098z" fill="currentColor"/></symbol><symbol id="merlines" viewBox="0 0 98 22"><path d="M0 22V8.033A9.008 9.008 0 01.893 4.9a8.883 8.883 0 011.594-2.255 8.663 8.663 0 012.234-1.629A9.525 9.525 0 017.527.14c.6-.092 1.727-.256 3.062 0 2.093.402 3.498 1.607 4.148 2.255-.365-.08-.923-.105-1.596-.062-1.487.094-2.524.63-2.997.94-.505.329-1.264.902-1.851 1.878-.525.877-.766 1.692-.829 3.007v13.844" fill="currentColor"/><path d="M10.144 15.171a9.019 9.019 0 01-.128-1.513V8.407a3.54 3.54 0 01.51-1.754 3.661 3.661 0 011.66-1.442c.93-.403 1.756-.298 2.104-.249.387.053 1.145.169 1.85.752a3.462 3.462 0 011.212 2.38v5.517c0 .771.167 1.536.503 2.233l.007.017a6.983 6.983 0 001.595 2.13c.484.433 1.46 1.287 3 1.565.986.18 1.813.05 2.294-.062-.32.275-.789.643-1.402 1.003-.81.476-2.786 1.6-5.423 1.378-2.848-.24-4.713-1.903-5.423-2.631-1.51-1.554-2.166-3.26-2.36-4.072z" fill="currentColor"/><path d="M20.03 13.204V7.718a7.712 7.712 0 01.576-2.507c.698-1.68 1.81-2.652 2.296-3.068a8.958 8.958 0 013.89-1.941c.38-.081 2.032-.4 4.085.123a9.406 9.406 0 013.89 2.068 6.885 6.885 0 00-1.53-.062 6.78 6.78 0 00-2.807.814 6.183 6.183 0 00-2.105 1.942 5.104 5.104 0 00-.83 2.005c-.075.43-.078.8-.063 1.064l-.064 5.45c.003.347-.038 1.213-.638 2.005-.886 1.168-2.308 1.277-2.807 1.314-.512.04-1.814.082-2.807-.877-.551-.53-.815-1.098-.893-1.44a5.222 5.222 0 01-.192-1.404z" fill="currentColor"/><path d="M29.92 21.875V8.79c0-.812.231-1.613.693-2.285.022-.035.047-.07.072-.104.227-.31.578-.782 1.213-1.127 1.05-.572 2.114-.385 2.487-.313.37.07 1.2.24 1.914.939.689.675.877 1.457.957 1.817.128.57.063 1.002.063 1.378v12.779M53.32 21.84h-2.04v-4.536c0-.861-.061-1.385-.185-1.572-.134-.21-.45-.314-.944-.314h-.117c-.496 0-.81.103-.945.314-.124.187-.186.711-.186 1.572v4.536h-2.04v-4.536c0-.861-.062-1.385-.185-1.572-.135-.21-.45-.314-.944-.314h-.117c-.496 0-.81.103-.946.314-.123.187-.185.711-.185 1.572v4.536h-2.04v-4.867c0-1.081.135-1.832.405-2.25.405-.63 1.202-.945 2.395-.945h.909c.438 0 .787.053 1.045.158.258.105.489.284.693.537.426-.464 1.016-.695 1.77-.695h.859c1.19 0 1.99.315 2.393.944.272.42.405 1.164.405 2.235M59.289 17.023v-.48c0-.75-.365-1.125-1.096-1.125h-.168c-.506 0-.838.142-.995.43-.113.187-.186.622-.22 1.308h2.361c.078 0 .118-.045.118-.133zm2.107 3.658c-.348.453-.74.776-1.179.969-.438.193-.99.29-1.653.29h-.81c-.966 0-1.684-.233-2.156-.696-.338-.32-.57-.733-.701-1.241-.13-.507-.194-1.22-.194-2.136 0-.916.064-1.63.194-2.144.13-.513.363-.929.7-1.25.473-.464 1.191-.695 2.158-.695h.658c.876 0 1.578.221 2.106.662.53.442.794 1.116.794 2.02v.762c0 .497-.11.862-.329 1.1-.22.238-.622.356-1.206.356H56.81c.034.563.113.96.236 1.192.157.287.496.43 1.012.43h.506c.63 0 1.17-.253 1.62-.761M66.741 15.418h-.81c-.493 0-.809.105-.944.314-.123.187-.184.711-.184 1.572v4.536H62.76v-4.867c0-1.081.137-1.832.405-2.25.406-.63 1.204-.945 2.395-.945h1.18M70.974 21.84h-.675c-.889 0-1.524-.176-1.905-.53-.383-.353-.573-.937-.573-1.754V9.74h2.04v9.204c0 .53.044.86.135.993.123.177.347.265.673.265h.305M74.413 21.84h-2.04v-7.93h2.04v7.93zm-.236-10.743c.212.208.32.469.32.777 0 .31-.108.572-.32.786a1.072 1.072 0 01-.794.324 1.1 1.1 0 01-.8-.324 1.06 1.06 0 01-.329-.786c0-.308.11-.569.328-.777.22-.21.487-.316.801-.316.316 0 .58.105.794.316zM82.808 21.84h-2.04v-4.536c0-.861-.061-1.385-.186-1.572-.135-.21-.449-.314-.943-.314h-.22c-.494 0-.81.103-.944.314-.123.187-.185.711-.185 1.572v4.536h-2.04v-4.867c0-1.081.135-1.832.405-2.25.405-.63 1.202-.945 2.393-.945h.962c1.191 0 1.989.315 2.393.944.27.42.405 1.164.405 2.235M88.777 17.023v-.48c0-.75-.367-1.125-1.096-1.125h-.168c-.506 0-.84.142-.996.43-.111.187-.185.622-.218 1.308h2.36c.078 0 .118-.045.118-.133zm2.107 3.658c-.347.453-.742.776-1.18.969-.437.193-.989.29-1.652.29h-.81c-.966 0-1.686-.233-2.158-.696-.337-.32-.57-.733-.7-1.241-.128-.507-.193-1.22-.193-2.136 0-.916.065-1.63.194-2.144.129-.513.362-.929.7-1.25.472-.464 1.192-.695 2.158-.695h.657c.877 0 1.58.221 2.107.662.53.442.794 1.116.794 2.02v.762c0 .497-.11.862-.329 1.1-.22.238-.623.356-1.205.356h-2.968c.033.563.112.96.236 1.192.157.287.494.43 1.011.43h.506c.63 0 1.17-.253 1.618-.761M98 19.689c0 .684-.242 1.23-.726 1.638-.483.408-1.203.612-2.157.612h-.473c-.674 0-1.19-.072-1.551-.214-.36-.144-.758-.447-1.197-.912l1.096-1.29c.281.31.533.516.76.62.224.106.527.158.909.158h.422c.64 0 .96-.248.96-.745 0-.154-.007-.273-.025-.357a.514.514 0 00-.143-.248.76.76 0 00-.338-.19l-1.686-.496c-.606-.178-1.041-.407-1.305-.687-.266-.283-.398-.693-.398-1.234v-.347c0-.729.24-1.28.718-1.656.478-.375 1.088-.563 1.828-.563h.709c.607 0 1.079.072 1.416.216.337.144.697.43 1.08.86L96.7 16.097c-.258-.277-.466-.458-.623-.546-.157-.09-.377-.132-.657-.132h-.573c-.506 0-.76.193-.76.579 0 .198.03.347.094.446.062.1.204.183.43.25l1.686.496c.606.176 1.041.407 1.305.695.264.287.398.7.398 1.242" fill="currentColor"/></symbol><symbol id="white-1" viewBox="166.7 140 160 160"><path d="M326.667 220c0 44.183-35.818 80-80 80-44.183 0-80-35.817-80-80s35.817-80 80-80c44.182 0 80 35.817 80 80" fill="currentColor"/><path d="M184.26 257.45v-47.558a30.983 30.983 0 012.986-10.664c2.028-4.159 4.485-6.804 5.33-7.677a28.993 28.993 0 017.466-5.546c.806-.418 4.32-2.19 9.382-2.985 2.007-.316 5.771-.875 10.238 0 6.994 1.37 11.69 5.47 13.861 7.677-1.221-.276-3.08-.358-5.33-.213-4.974.32-8.44 2.144-10.023 3.199-1.686 1.124-4.226 3.072-6.186 6.398-1.757 2.984-2.56 5.758-2.772 10.236v47.132z" fill="currentColor"/><path d="M218.17 234.203a31.326 31.326 0 01-.427-5.153v-17.88c.024-1.119.229-3.49 1.705-5.972 1.863-3.132 4.583-4.481 5.545-4.905 3.115-1.374 5.874-1.019 7.038-.854 1.293.184 3.828.58 6.185 2.56.373.314 2.113 1.82 3.199 4.48.592 1.45.785 2.746.853 3.624v18.783c0 2.627.556 5.23 1.679 7.605l.028.058c1.876 3.942 4.37 6.373 5.332 7.25 1.616 1.478 4.88 4.383 10.022 5.331 3.302.61 6.064.17 7.678-.213a32.572 32.572 0 01-4.692 3.413c-2.712 1.623-9.311 5.45-18.127 4.69-9.523-.817-15.76-6.475-18.128-8.957-5.052-5.288-7.243-11.1-7.89-13.86" fill="currentColor"/><path d="M251.225 227.507v-18.682a26.598 26.598 0 011.919-8.53c2.336-5.724 6.052-9.035 7.677-10.451 5.635-4.905 11.519-6.292 13.01-6.61 1.262-.271 6.788-1.363 13.648.426 6.46 1.684 10.824 5.067 13.009 7.037a22.81 22.81 0 00-5.117-.213c-5.078.361-8.62 2.333-9.384 2.773-4.144 2.383-6.343 5.539-7.038 6.61-.73 1.125-2.2 3.44-2.772 6.825a16.755 16.755 0 00-.213 3.625l-.213 18.554c.009 1.184-.127 4.129-2.134 6.826-2.961 3.976-7.716 4.347-9.382 4.478-1.71.133-6.063.276-9.384-2.986-1.844-1.812-2.724-3.744-2.987-4.905a18.186 18.186 0 01-.639-4.777" fill="currentColor"/><path d="M284.281 257.022v-44.544c0-2.764.772-5.49 2.316-7.783.079-.116.159-.232.243-.349.756-1.057 1.93-2.661 4.052-3.839 3.512-1.948 7.07-1.309 8.317-1.066 1.239.241 4.012.82 6.398 3.198 2.304 2.298 2.928 4.96 3.2 6.186.428 1.94.213 3.412.213 4.692v43.505z" fill="currentColor"/></symbol><symbol id="MerLines5" viewBox="0 0 261.04 59.68"><g clip-path="url(#a)"><path d="M0 59.68V21.785a24.76 24.76 0 012.379-8.496c1.617-3.312 3.574-5.422 4.246-6.117a23.11 23.11 0 015.95-4.418c.644-.332 3.44-1.746 7.476-2.379 1.597-.25 4.597-.695 8.156 0 5.574 1.09 9.316 4.36 11.047 6.117-.973-.219-2.457-.285-4.25-.168-3.961.254-6.723 1.707-7.984 2.547-1.344.895-3.368 2.45-4.93 5.098-1.399 2.379-2.04 4.59-2.207 8.156V59.68" fill="currentColor"/></g><g clip-path="url(#b)"><path d="M27.02 41.156a24.918 24.918 0 01-.34-4.105V22.805c.02-.89.18-2.778 1.36-4.758 1.483-2.496 3.651-3.57 4.417-3.91 2.48-1.094 4.68-.809 5.605-.676 1.032.144 3.051.457 4.93 2.039.297.25 1.684 1.45 2.547 3.566a9.458 9.458 0 01.68 2.891v14.965c0 2.094.445 4.168 1.34 6.058.007.016.015.032.02.047 1.495 3.141 3.483 5.078 4.25 5.778 1.288 1.175 3.886 3.492 7.987 4.246 2.63.488 4.832.136 6.114-.168a25.654 25.654 0 01-3.735 2.719c-2.16 1.293-7.422 4.34-14.445 3.738-7.586-.653-12.555-5.16-14.445-7.137-4.024-4.215-5.77-8.844-6.285-11.047" fill="currentColor"/></g><path d="M53.355 35.82V20.937c.094-1.64.422-4.078 1.532-6.8 1.86-4.559 4.82-7.196 6.117-8.325C65.492 1.902 70.18.801 71.367.548c1.008-.219 5.41-1.086 10.88.336 5.148 1.344 8.62 4.039 10.362 5.61-1-.157-2.406-.29-4.078-.169-4.047.285-6.867 1.856-7.476 2.207-3.301 1.899-5.051 4.414-5.606 5.27-.582.894-1.754 2.738-2.21 5.437a13.023 13.023 0 00-.169 2.887l-.172 14.785c.008.942-.101 3.29-1.699 5.438-2.36 3.168-6.148 3.465-7.476 3.566-1.364.11-4.832.223-7.477-2.379-1.469-1.441-2.172-2.98-2.379-3.906a14.413 14.413 0 01-.512-3.809" fill="currentColor"/><g clip-path="url(#c)"><path d="M79.695 59.34V23.848c0-2.203.618-4.375 1.848-6.2.059-.093.125-.187.191-.28.602-.84 1.54-2.122 3.23-3.06 2.798-1.55 5.634-1.042 6.626-.847.988.191 3.2.652 5.097 2.547 1.836 1.832 2.336 3.953 2.551 4.93.34 1.546.168 2.718.168 3.738V59.34" fill="currentColor"/></g><path d="M142.027 51.246h-5.433V38.941c0-2.336-.164-3.757-.492-4.265-.36-.57-1.2-.852-2.516-.852h-.313c-1.32 0-2.156.281-2.515.852-.332.508-.496 1.93-.496 4.265v12.305h-5.434V38.941c0-2.336-.164-3.757-.492-4.265-.36-.57-1.2-.852-2.516-.852h-.312c-1.32 0-2.156.281-2.52.852-.328.508-.492 1.93-.492 4.265v12.305h-5.433V38.043c0-2.934.359-4.969 1.078-6.105 1.078-1.708 3.203-2.563 6.379-2.563h2.421c1.168 0 2.098.145 2.786.43.687.285 1.3.77 1.843 1.457 1.137-1.258 2.707-1.887 4.715-1.887h2.29c3.171 0 5.3.855 6.374 2.563.723 1.136 1.078 3.156 1.078 6.062M157.926 38.18v-1.305c0-2.035-.973-3.05-2.918-3.05h-.45c-1.347 0-2.23.386-2.648 1.167-.3.508-.496 1.688-.586 3.547h6.29c.206 0 .312-.121.312-.36m5.613 9.923c-.926 1.23-1.973 2.105-3.14 2.628-1.169.524-2.637.786-4.403.786h-2.156c-2.574 0-4.488-.63-5.746-1.887-.899-.867-1.52-1.988-1.867-3.367-.344-1.375-.516-3.309-.516-5.793 0-2.485.172-4.422.516-5.817.347-1.39.968-2.52 1.867-3.39 1.258-1.258 3.172-1.887 5.746-1.887h1.754c2.332 0 4.203.602 5.61 1.797 1.41 1.2 2.112 3.027 2.112 5.48v2.067c0 1.347-.293 2.34-.875 2.984-.586.645-1.656.965-3.21.965h-7.907c.09 1.527.301 2.605.63 3.234.417.778 1.32 1.168 2.694 1.168h1.348c1.676 0 3.113-.687 4.313-2.066M177.777 33.824h-2.156c-1.316 0-2.156.285-2.516.852-.328.508-.492 1.93-.492 4.265v12.305h-5.437V38.043c0-2.934.363-4.969 1.078-6.105 1.082-1.708 3.207-2.563 6.379-2.563h3.144M189.05 51.246h-1.796c-2.367 0-4.059-.476-5.074-1.437-1.02-.957-1.528-2.543-1.528-4.758V18.418h5.434v24.969c0 1.437.117 2.336.36 2.695.327.48.925.719 1.792.719h.813M198.21 51.246h-5.433V29.734h5.434zm-.628-29.144c.566.566.856 1.273.856 2.109 0 .84-.29 1.55-.856 2.133-.57.586-1.273.879-2.113.879-.836 0-1.547-.293-2.13-.88-.585-.581-.878-1.292-.878-2.132 0-.836.293-1.543.879-2.11.582-.57 1.293-.855 2.129-.855.84 0 1.543.285 2.113.856M220.574 51.246h-5.433V38.941c0-2.336-.164-3.757-.496-4.265-.36-.57-1.196-.852-2.512-.852h-.586c-1.317 0-2.156.281-2.516.852-.328.508-.492 1.93-.492 4.265v12.305h-5.434V38.043c0-2.934.36-4.969 1.079-6.105 1.078-1.708 3.203-2.563 6.375-2.563h2.562c3.172 0 5.297.855 6.375 2.563.719 1.136 1.078 3.156 1.078 6.062M236.473 38.18v-1.305c0-2.035-.977-3.05-2.918-3.05h-.45c-1.347 0-2.234.386-2.652 1.167-.297.508-.492 1.688-.582 3.547h6.29c.206 0 .312-.121.312-.36m5.613 9.923c-.926 1.23-1.977 2.105-3.145 2.628-1.164.524-2.632.786-4.398.786h-2.156c-2.575 0-4.492-.63-5.75-1.887-.899-.867-1.52-1.988-1.864-3.367-.343-1.375-.515-3.309-.515-5.793 0-2.485.172-4.422.515-5.817.344-1.39.965-2.52 1.864-3.39 1.258-1.258 3.175-1.887 5.75-1.887h1.75c2.336 0 4.207.602 5.613 1.797 1.41 1.2 2.113 3.027 2.113 5.48v2.067c0 1.347-.293 2.34-.875 2.984-.586.645-1.66.965-3.21.965h-7.907c.09 1.527.3 2.605.629 3.234.418.778 1.316 1.168 2.695 1.168h1.348c1.676 0 3.113-.687 4.309-2.066" fill="currentColor"/><g clip-path="url(#d)"><path d="M261.04 45.41c0 1.856-.645 3.336-1.935 4.445-1.285 1.11-3.203 1.66-5.746 1.66h-1.257c-1.797 0-3.172-.195-4.133-.581-.957-.391-2.02-1.211-3.188-2.47l2.918-3.503c.75.84 1.422 1.398 2.024 1.684.597.285 1.406.425 2.422.425h1.125c1.707 0 2.558-.672 2.558-2.02 0-.417-.02-.741-.066-.968-.043-.223-.172-.445-.383-.672-.207-.222-.508-.394-.899-.515l-4.492-1.348c-1.613-.48-2.773-1.102-3.476-1.863-.707-.766-1.059-1.88-1.059-3.348v-.941c0-1.977.637-3.473 1.91-4.493 1.274-1.015 2.899-1.527 4.871-1.527h1.887c1.617 0 2.875.195 3.774.586.898.39 1.855 1.168 2.875 2.336l-3.192 3.367c-.687-.75-1.242-1.242-1.66-1.48-.418-.243-1.004-.36-1.75-.36h-1.527c-1.348 0-2.024.524-2.024 1.57 0 .54.082.942.25 1.211.164.27.543.497 1.145.676l4.492 1.348c1.613.476 2.773 1.105 3.476 1.887.704.777 1.06 1.898 1.06 3.367" fill="currentColor"/></g></symbol><symbol id="MerLines51" viewBox="0 0 261.04 59.68"><g clip-path="url(#a)"><path d="M0 59.68V21.785c.203-2.133.77-5.191 2.379-8.496 1.617-3.312 3.574-5.422 4.246-6.117a23.11 23.11 0 015.95-4.418c.644-.332 3.44-1.746 7.476-2.379 1.597-.25 4.597-.695 8.156 0 5.574 1.09 9.316 4.36 11.047 6.117-.973-.219-2.457-.285-4.25-.168-3.961.254-6.723 1.707-7.984 2.547-1.344.895-3.368 2.45-4.93 5.098-1.399 2.379-2.04 4.59-2.207 8.156V59.68" fill="currentColor"/></g><g clip-path="url(#b)"><path d="M27.02 41.156a24.918 24.918 0 01-.34-4.105V22.805c.02-.89.18-2.778 1.36-4.758 1.483-2.496 3.651-3.57 4.417-3.91 2.48-1.094 4.68-.809 5.605-.676 1.032.144 3.051.457 4.93 2.039.297.25 1.684 1.45 2.547 3.566a9.458 9.458 0 01.68 2.891v14.965c0 2.094.445 4.168 1.34 6.058.007.016.015.032.02.047 1.495 3.141 3.483 5.078 4.25 5.778 1.288 1.175 3.886 3.492 7.987 4.246 2.63.488 4.832.136 6.114-.168a25.654 25.654 0 01-3.735 2.719c-2.16 1.293-7.422 4.34-14.445 3.738-7.586-.653-12.555-5.16-14.445-7.137-4.024-4.215-5.77-8.844-6.285-11.047" fill="currentColor"/></g><path d="M53.355 35.82V20.937c.094-1.64.422-4.078 1.532-6.8 1.86-4.559 4.82-7.196 6.117-8.325C65.492 1.902 70.18.801 71.367.548c1.008-.219 5.41-1.086 10.88.336 5.148 1.344 8.62 4.039 10.362 5.61-1-.157-2.406-.29-4.078-.169-4.047.285-6.867 1.856-7.476 2.207-3.301 1.899-5.051 4.414-5.606 5.27-.582.894-1.754 2.738-2.21 5.437a13.023 13.023 0 00-.169 2.887l-.172 14.785c.008.942-.101 3.29-1.699 5.438-2.36 3.168-6.148 3.465-7.476 3.566-1.364.11-4.832.223-7.477-2.379-1.469-1.441-2.172-2.98-2.379-3.906a14.413 14.413 0 01-.512-3.809" fill="currentColor"/><g clip-path="url(#c)"><path d="M79.695 59.34V23.848c0-2.203.618-4.375 1.848-6.2.059-.093.125-.187.191-.28.606-.84 1.54-2.122 3.23-3.06 2.798-1.55 5.634-1.042 6.626-.847.988.191 3.2.652 5.097 2.547 1.836 1.832 2.336 3.953 2.551 4.93.34 1.546.168 2.718.168 3.738V59.34" fill="currentColor"/></g><g clip-path="url(#d)"><path d="M142.027 59.246h-5.433V46.941c0-2.336-.164-3.757-.492-4.265-.36-.57-1.2-.852-2.516-.852h-.313c-1.32 0-2.156.281-2.515.852-.332.508-.496 1.93-.496 4.265v12.305h-5.434V46.941c0-2.336-.164-3.757-.492-4.265-.36-.57-1.2-.852-2.516-.852h-.312c-1.32 0-2.156.281-2.52.852-.328.508-.492 1.93-.492 4.265v12.305h-5.433V46.043c0-2.934.359-4.969 1.078-6.105 1.078-1.708 3.203-2.563 6.379-2.563h2.421c1.168 0 2.098.145 2.786.43.687.285 1.3.77 1.843 1.457 1.137-1.258 2.707-1.887 4.715-1.887h2.29c3.171 0 5.3.855 6.374 2.563.723 1.136 1.078 3.156 1.078 6.062" fill="currentColor"/></g><g clip-path="url(#e)"><path d="M157.926 46.18v-1.305c0-2.035-.973-3.05-2.918-3.05h-.45c-1.347 0-2.23.386-2.648 1.167-.3.508-.496 1.688-.586 3.547h6.29c.206 0 .312-.121.312-.36m5.613 9.923c-.926 1.23-1.973 2.105-3.14 2.628-1.169.524-2.637.786-4.403.786h-2.156c-2.574 0-4.488-.63-5.746-1.887-.899-.867-1.52-1.988-1.867-3.367-.344-1.375-.516-3.309-.516-5.793 0-2.485.172-4.422.516-5.817.347-1.39.968-2.52 1.867-3.39 1.258-1.258 3.172-1.887 5.746-1.887h1.754c2.332 0 4.203.602 5.61 1.797 1.41 1.2 2.112 3.027 2.112 5.48v2.067c0 1.347-.293 2.34-.875 2.984-.586.645-1.656.965-3.21.965h-7.907c.09 1.527.301 2.605.63 3.234.417.778 1.32 1.168 2.694 1.168h1.348c1.676 0 3.113-.687 4.313-2.066" fill="currentColor"/></g><g clip-path="url(#f)"><path d="M177.777 41.824h-2.156c-1.316 0-2.156.285-2.516.852-.328.508-.492 1.93-.492 4.265v12.305h-5.437V46.043c0-2.934.363-4.969 1.078-6.105 1.082-1.708 3.207-2.563 6.379-2.563h3.144" fill="currentColor"/></g><g clip-path="url(#g)"><path d="M189.05 59.246h-1.796c-2.367 0-4.059-.476-5.074-1.437-1.02-.957-1.528-2.543-1.528-4.758V26.418h5.434v24.969c0 1.437.117 2.336.36 2.695.327.48.925.719 1.792.719h.813" fill="currentColor"/></g><g clip-path="url(#h)"><path d="M198.21 59.246h-5.433V37.734h5.434zm-.628-29.144c.566.566.852 1.273.852 2.109 0 .84-.286 1.55-.852 2.133-.57.586-1.273.879-2.113.879a2.904 2.904 0 01-2.133-.88c-.582-.581-.875-1.292-.875-2.132 0-.836.293-1.543.875-2.11.586-.57 1.297-.855 2.133-.855.84 0 1.543.285 2.113.856" fill="currentColor"/></g><g clip-path="url(#i)"><path d="M220.574 59.246h-5.433V46.941c0-2.336-.164-3.757-.496-4.265-.36-.57-1.196-.852-2.512-.852h-.586c-1.317 0-2.156.281-2.516.852-.328.508-.492 1.93-.492 4.265v12.305h-5.434V46.043c0-2.934.36-4.969 1.079-6.105 1.078-1.708 3.203-2.563 6.375-2.563h2.562c3.172 0 5.297.855 6.375 2.563.719 1.136 1.078 3.156 1.078 6.062" fill="currentColor"/></g><g clip-path="url(#j)"><path d="M236.473 46.18v-1.305c0-2.035-.977-3.05-2.918-3.05h-.45c-1.347 0-2.234.386-2.652 1.167-.297.508-.492 1.688-.582 3.547h6.29c.206 0 .312-.121.312-.36m5.613 9.923c-.926 1.23-1.977 2.105-3.145 2.628-1.164.524-2.632.786-4.398.786h-2.156c-2.575 0-4.492-.63-5.75-1.887-.899-.867-1.52-1.988-1.864-3.367-.343-1.375-.515-3.309-.515-5.793 0-2.485.172-4.422.515-5.817.344-1.39.965-2.52 1.864-3.39 1.258-1.258 3.175-1.887 5.75-1.887h1.75c2.336 0 4.207.602 5.613 1.797 1.41 1.2 2.113 3.027 2.113 5.48v2.067c0 1.347-.293 2.34-.875 2.984-.586.645-1.66.965-3.21.965h-7.907c.09 1.527.3 2.605.629 3.234.418.778 1.316 1.168 2.695 1.168h1.348c1.676 0 3.113-.687 4.309-2.066" fill="currentColor"/></g><g clip-path="url(#k)"><path d="M261.04 53.41c0 1.856-.645 3.336-1.935 4.445-1.285 1.106-3.203 1.66-5.746 1.66h-1.257c-1.797 0-3.172-.195-4.133-.581-.957-.391-2.02-1.211-3.188-2.473l2.918-3.5c.75.84 1.422 1.398 2.024 1.684.597.285 1.406.425 2.422.425h1.125c1.707 0 2.558-.672 2.558-2.02 0-.417-.02-.741-.066-.968-.043-.223-.172-.445-.383-.672-.207-.222-.508-.394-.899-.515l-4.492-1.348c-1.613-.48-2.773-1.102-3.476-1.863-.707-.766-1.059-1.88-1.059-3.348v-.941c0-1.977.637-3.473 1.91-4.493 1.274-1.015 2.899-1.527 4.871-1.527h1.887c1.617 0 2.875.195 3.774.586.898.39 1.855 1.168 2.875 2.336l-3.192 3.367c-.687-.75-1.242-1.242-1.66-1.48-.418-.243-1.004-.36-1.75-.36h-1.527c-1.348 0-2.024.524-2.024 1.57 0 .54.082.942.25 1.211.164.27.543.497 1.145.676l4.492 1.348c1.613.476 2.773 1.105 3.476 1.887.704.777 1.06 1.898 1.06 3.367" fill="currentColor"/></g></symbol><symbol id="MerLines52" viewBox="0 0 99.81 96.82"><path d="M.18 59.68V21.785a24.695 24.695 0 012.379-8.496c1.617-3.312 3.574-5.422 4.246-6.117a23.11 23.11 0 015.949-4.418c.644-.332 3.441-1.742 7.476-2.379 1.598-.25 4.598-.695 8.157 0 5.574 1.094 9.316 4.36 11.047 6.117-.973-.219-2.457-.285-4.25-.168-3.961.254-6.723 1.707-7.985 2.547-1.344.895-3.367 2.45-4.93 5.098-1.402 2.379-2.039 4.59-2.21 8.156V59.68" fill="currentColor"/><path d="M27.2 41.16a24.97 24.97 0 01-.345-4.11V22.806a9.798 9.798 0 011.364-4.758 9.742 9.742 0 014.418-3.906c2.48-1.094 4.68-.813 5.605-.68 1.031.144 3.051.46 4.93 2.039.297.25 1.683 1.45 2.547 3.57a9.556 9.556 0 01.68 2.887v14.965c0 2.094.445 4.168 1.34 6.058a.239.239 0 00.019.047c1.496 3.141 3.484 5.078 4.25 5.778 1.289 1.175 3.887 3.492 7.984 4.25 2.633.484 4.832.133 6.117-.172a25.508 25.508 0 01-3.738 2.719c-2.16 1.293-7.418 4.343-14.441 3.738-7.586-.653-12.559-5.16-14.446-7.137-4.023-4.215-5.77-8.844-6.285-11.043" fill="currentColor"/><path d="M53.535 35.824V20.938c.094-1.641.422-4.079 1.531-6.797 1.86-4.563 4.82-7.2 6.118-8.329C65.672 1.906 70.359.801 71.547.548c1.008-.215 5.41-1.086 10.879.34 5.144 1.34 8.62 4.035 10.363 5.605-1-.152-2.406-.289-4.078-.168-4.047.29-6.867 1.86-7.477 2.207-3.3 1.899-5.054 4.414-5.609 5.27-.578.894-1.75 2.738-2.207 5.437a13.32 13.32 0 00-.172 2.887l-.168 14.785c.008.942-.101 3.29-1.7 5.438-2.358 3.168-6.148 3.465-7.476 3.57-1.363.105-4.832.219-7.476-2.379-1.469-1.445-2.172-2.984-2.38-3.91a14.406 14.406 0 01-.51-3.805" fill="currentColor"/><g clip-path="url(#a)"><path d="M79.875 59.34V23.848c0-2.203.613-4.375 1.848-6.2.058-.093.125-.187.191-.28.602-.84 1.54-2.122 3.23-3.06 2.797-1.55 5.633-1.038 6.626-.847.988.191 3.195.652 5.097 2.547 1.836 1.832 2.332 3.953 2.551 4.93.34 1.546.168 2.718.168 3.738V59.34" fill="currentColor"/></g><g fill="currentColor" clip-path="url(#b)"><use xlink:href="#c" y="90.614"/><use xlink:href="#d" x="21.96" y="90.614"/><use xlink:href="#e" x="35.585" y="90.614"/><use xlink:href="#f" x="44.481" y="90.614"/><use xlink:href="#g" x="52.077" y="90.614"/><use xlink:href="#h" x="59.259" y="90.614"/><use xlink:href="#d" x="73.653" y="90.614"/><use xlink:href="#i" x="87.278" y="90.614"/></g></symbol><symbol id="MerLines4" viewBox="0 0 99.81 96.82"><path d="M.18 59.68V21.785a24.695 24.695 0 012.379-8.496c1.617-3.312 3.574-5.422 4.246-6.117a23.11 23.11 0 015.949-4.418c.644-.332 3.441-1.742 7.476-2.379 1.598-.25 4.598-.695 8.157 0 5.574 1.094 9.316 4.36 11.047 6.117-.973-.219-2.457-.285-4.25-.168-3.961.254-6.723 1.707-7.985 2.547-1.344.895-3.367 2.45-4.93 5.098-1.402 2.379-2.039 4.59-2.21 8.156V59.68" fill="currentColor"/><path d="M27.2 41.16a24.97 24.97 0 01-.345-4.11V22.806a9.798 9.798 0 011.364-4.758 9.742 9.742 0 014.418-3.906c2.48-1.094 4.68-.813 5.605-.68 1.031.144 3.051.46 4.93 2.039.297.25 1.683 1.45 2.547 3.57a9.556 9.556 0 01.68 2.887v14.965c0 2.094.445 4.168 1.34 6.058a.239.239 0 00.019.047c1.496 3.141 3.484 5.078 4.25 5.778 1.289 1.175 3.887 3.492 7.984 4.25 2.633.484 4.832.133 6.117-.172a25.508 25.508 0 01-3.738 2.719c-2.16 1.293-7.418 4.343-14.441 3.738-7.586-.653-12.559-5.16-14.446-7.137-4.023-4.215-5.77-8.844-6.285-11.043" fill="currentColor"/><path d="M53.535 35.824V20.938c.094-1.641.422-4.079 1.531-6.797 1.86-4.563 4.82-7.2 6.118-8.329C65.672 1.906 70.359.801 71.547.548c1.008-.215 5.41-1.086 10.879.34 5.144 1.34 8.62 4.035 10.363 5.605-1-.152-2.406-.289-4.078-.168-4.047.29-6.867 1.86-7.477 2.207-3.3 1.899-5.054 4.414-5.609 5.27-.578.894-1.75 2.738-2.207 5.437a13.32 13.32 0 00-.172 2.887l-.168 14.785c.008.942-.101 3.29-1.7 5.438-2.358 3.168-6.148 3.465-7.476 3.57-1.363.105-4.832.219-7.476-2.379-1.469-1.445-2.172-2.984-2.38-3.91a14.406 14.406 0 01-.51-3.805" fill="currentColor"/><g clip-path="url(#a)"><path d="M79.875 59.34V23.848c0-2.203.613-4.375 1.848-6.2.058-.093.125-.187.191-.28.602-.84 1.54-2.122 3.23-3.06 2.797-1.55 5.633-1.038 6.626-.847.988.191 3.195.652 5.097 2.547 1.836 1.832 2.332 3.953 2.551 4.93.34 1.546.168 2.718.168 3.738V59.34" fill="currentColor"/></g><g fill="currentColor" clip-path="url(#b)"><use xlink:href="#c" y="90.614"/><use xlink:href="#d" x="21.96" y="90.614"/><use xlink:href="#e" x="35.585" y="90.614"/><use xlink:href="#f" x="44.481" y="90.614"/><use xlink:href="#g" x="52.077" y="90.614"/><use xlink:href="#h" x="59.259" y="90.614"/><use xlink:href="#d" x="73.653" y="90.614"/><use xlink:href="#i" x="87.278" y="90.614"/></g></symbol><symbol id="merlines1" viewBox="0 0 493.333 457.333"><g clip-path="url(#a)" transform="matrix(1.33333 0 0 -1.33333 0 457.333)"><path d="M245 178c0-33.137-26.863-60-60-60s-60 26.863-60 60 26.863 60 60 60 60-26.863 60-60" fill="currentColor"/><path d="M138.195 149.913v35.668c.19 2.011.722 4.887 2.24 7.998 1.52 3.12 3.363 5.103 3.997 5.758a21.745 21.745 0 005.6 4.16c.604.313 3.24 1.642 7.036 2.238 1.505.237 4.328.656 7.678 0 5.246-1.027 8.767-4.102 10.396-5.758-.916.207-2.31.27-3.998.16-3.73-.24-6.33-1.608-7.517-2.399-1.264-.843-3.169-2.304-4.639-4.799-1.318-2.238-1.92-4.318-2.079-7.677v-35.349z" fill="currentColor"/><path d="M163.627 167.348a23.494 23.494 0 00-.32 3.865v13.409a9.192 9.192 0 001.279 4.479 9.199 9.199 0 004.159 3.679c2.336 1.03 4.405.764 5.278.64.97-.138 2.871-.434 4.639-1.92.28-.235 1.585-1.365 2.399-3.36a9.035 9.035 0 00.64-2.718v-14.087a13.342 13.342 0 011.28-5.747c1.407-2.957 3.278-4.78 3.999-5.437 1.212-1.11 3.66-3.288 7.517-4a13.98 13.98 0 015.758.16 24.429 24.429 0 00-3.519-2.56c-2.034-1.216-6.983-4.086-13.595-3.517-7.142.613-11.82 4.857-13.596 6.718-3.789 3.966-5.432 8.325-5.918 10.396" fill="currentColor"/><path d="M188.419 172.37v14.011a19.949 19.949 0 001.439 6.398c1.752 4.293 4.539 6.776 5.758 7.838 4.226 3.68 8.639 4.72 9.757 4.958.947.203 5.09 1.022 10.236-.32 4.846-1.263 8.118-3.8 9.757-5.278-.94.146-2.264.272-3.838.16-3.808-.27-6.465-1.75-7.038-2.08-3.108-1.787-4.757-4.154-5.278-4.958-.548-.843-1.65-2.58-2.08-5.118a12.566 12.566 0 01-.16-2.719l-.16-13.915c.008-.888-.094-3.097-1.6-5.12-2.22-2.982-5.786-3.26-7.036-3.358-1.282-.1-4.547-.207-7.038 2.24-1.383 1.358-2.043 2.807-2.24 3.678a13.64 13.64 0 00-.48 3.583" fill="currentColor"/><path d="M213.21 150.233v33.408c0 2.073.58 4.117 1.738 5.837.059.087.119.174.182.262.567.793 1.448 1.996 3.039 2.88 2.634 1.46 5.303.981 6.238.8.929-.182 3.009-.616 4.798-2.4 1.728-1.723 2.196-3.719 2.4-4.639.32-1.455.16-2.559.16-3.519v-32.629z" fill="currentColor"/></g></symbol><symbol id="merlines2" viewBox="0 0 593.555 590.015"><g clip-path="url(#a)" transform="matrix(1.33333 0 0 -1.33333 0 590.015)"><path d="M87.101 221.228V259.123a24.733 24.733 0 002.38 8.496c1.615 3.313 3.573 5.422 4.247 6.117a23.09 23.09 0 005.948 4.418c.643.334 3.442 1.745 7.476 2.38 1.598.252 4.598.697 8.157 0 5.573-1.091 9.314-4.358 11.045-6.117-.973.22-2.455.286-4.248.17-3.963-.255-6.725-1.708-7.986-2.55-1.343-.893-3.367-2.446-4.929-5.097-1.4-2.378-2.039-4.588-2.209-8.156v-37.554z" fill="currentColor"/><path d="M114.12 239.75a24.991 24.991 0 00-.34 4.106v14.246a9.76 9.76 0 001.36 4.758c1.483 2.495 3.651 3.571 4.417 3.91 2.482 1.093 4.68.81 5.608.678 1.031-.146 3.05-.46 4.928-2.039.298-.25 1.684-1.45 2.549-3.569a9.576 9.576 0 00.68-2.888v-14.966c0-2.093.443-4.167 1.338-6.06l.021-.045c1.495-3.142 3.483-5.079 4.248-5.777 1.289-1.178 3.889-3.493 7.987-4.249a14.86 14.86 0 016.117.17 25.925 25.925 0 00-3.738-2.719c-2.16-1.292-7.419-4.34-14.444-3.738-7.586.651-12.556 5.161-14.444 7.137-4.025 4.214-5.77 8.845-6.287 11.045" fill="currentColor"/><path d="M140.458 245.086v14.885c.094 1.64.42 4.078 1.53 6.798 1.861 4.56 4.821 7.197 6.117 8.326 4.49 3.91 9.177 5.013 10.365 5.267 1.007.216 5.41 1.086 10.876-.339 5.148-1.342 8.623-4.038 10.365-5.608-.999.155-2.406.29-4.078.17-4.046-.288-6.868-1.859-7.477-2.209-3.302-1.899-5.053-4.414-5.607-5.268-.582-.896-1.754-2.74-2.209-5.438a13.322 13.322 0 01-.17-2.888l-.17-14.784c.008-.942-.1-3.29-1.7-5.437-2.359-3.169-6.148-3.465-7.476-3.569-1.362-.106-4.83-.22-7.477 2.38-1.469 1.442-2.17 2.982-2.379 3.907a14.445 14.445 0 00-.51 3.807" fill="currentColor"/><path d="M166.797 221.568v35.493c0 2.202.616 4.374 1.846 6.2.062.093.127.186.193.28.603.841 1.538 2.12 3.23 3.058 2.797 1.552 5.632 1.042 6.626.85.986-.193 3.197-.654 5.098-2.549 1.835-1.83 2.333-3.952 2.55-4.929.34-1.546.168-2.718.168-3.738v-34.665zM229.13 229.66h-5.433v12.306c0 2.336-.165 3.757-.494 4.267-.36.568-1.198.853-2.514.853h-.315c-1.318 0-2.156-.285-2.515-.853-.33-.51-.494-1.931-.494-4.267V229.66h-5.434v12.305c0 2.336-.165 3.757-.494 4.267-.36.568-1.198.853-2.515.853h-.314c-1.318 0-2.156-.285-2.516-.853-.33-.51-.493-1.931-.493-4.267V229.66h-5.434v13.204c0 2.933.359 4.969 1.077 6.107 1.078 1.707 3.204 2.56 6.378 2.56h2.425c1.167 0 2.095-.142 2.784-.427.688-.285 1.302-.771 1.842-1.46 1.137 1.258 2.709 1.887 4.715 1.887h2.29c3.174 0 5.3-.853 6.377-2.56.719-1.138 1.078-3.16 1.078-6.063zM245.028 242.73v1.301c0 2.036-.974 3.054-2.919 3.054h-.449c-1.348 0-2.23-.389-2.65-1.168-.299-.509-.494-1.69-.584-3.547h6.288c.21 0 .314.12.314.36m5.614-9.926c-.928-1.228-1.976-2.104-3.144-2.627-1.167-.524-2.635-.786-4.4-.786h-2.157c-2.575 0-4.49.63-5.748 1.886-.898.868-1.519 1.991-1.864 3.368-.344 1.377-.516 3.308-.516 5.793 0 2.485.172 4.424.516 5.816.345 1.392.966 2.522 1.864 3.391 1.258 1.257 3.173 1.886 5.748 1.886h1.752c2.335 0 4.206-.599 5.613-1.796 1.408-1.198 2.112-3.025 2.112-5.479v-2.066c0-1.347-.292-2.343-.876-2.986-.584-.645-1.656-.966-3.21-.966h-7.906c.09-1.527.3-2.605.63-3.234.418-.778 1.317-1.167 2.694-1.167h1.347c1.676 0 3.114.688 4.311 2.065zM264.878 247.085h-2.155c-1.318 0-2.156-.285-2.515-.853-.33-.51-.494-1.93-.494-4.267V229.66h-5.435v13.204c0 2.933.36 4.97 1.078 6.107 1.079 1.707 3.204 2.56 6.377 2.56h3.144zM276.15 229.66h-1.796c-2.366 0-4.058.48-5.075 1.438-1.019.958-1.527 2.544-1.527 4.76v26.632h5.434v-24.97c0-1.437.12-2.335.36-2.694.33-.48.927-.72 1.795-.72h.81zM285.312 229.661h-5.435v21.512h5.435zm-.629 29.146c.569-.569.854-1.273.854-2.111 0-.839-.285-1.549-.854-2.133-.569-.584-1.273-.876-2.111-.876-.838 0-1.549.292-2.133.876-.584.584-.876 1.294-.876 2.133 0 .838.292 1.542.876 2.111.584.568 1.295.853 2.133.853.838 0 1.542-.285 2.111-.853M307.676 229.66h-5.434v12.306c0 2.336-.165 3.757-.494 4.267-.36.568-1.197.853-2.514.853h-.584c-1.318 0-2.156-.285-2.515-.853-.33-.51-.494-1.931-.494-4.267V229.66h-5.435v13.204c0 2.933.36 4.969 1.078 6.107 1.079 1.707 3.204 2.56 6.377 2.56h2.56c3.174 0 5.3-.853 6.378-2.56.719-1.138 1.077-3.16 1.077-6.063zM323.574 242.73v1.301c0 2.036-.974 3.054-2.919 3.054h-.449c-1.348 0-2.23-.389-2.65-1.168-.299-.509-.494-1.69-.584-3.547h6.288c.21 0 .314.12.314.36m5.614-9.926c-.928-1.228-1.976-2.104-3.144-2.627-1.167-.524-2.635-.786-4.4-.786h-2.157c-2.575 0-4.49.63-5.748 1.886-.898.868-1.519 1.991-1.864 3.368-.344 1.377-.516 3.308-.516 5.793 0 2.485.172 4.424.516 5.816.345 1.392.966 2.522 1.864 3.391 1.258 1.257 3.173 1.886 5.748 1.886h1.752c2.335 0 4.206-.599 5.613-1.796 1.408-1.198 2.112-3.025 2.112-5.479v-2.066c0-1.347-.292-2.343-.876-2.986-.584-.645-1.656-.966-3.21-.966h-7.906c.09-1.527.3-2.605.63-3.234.418-.778 1.317-1.167 2.694-1.167h1.347c1.676 0 3.114.688 4.311 2.065zM348.14 235.499c0-1.857-.645-3.339-1.931-4.446-1.288-1.108-3.204-1.662-5.75-1.662h-1.257c-1.796 0-3.173.195-4.13.584-.96.389-2.022 1.212-3.19 2.47l2.92 3.503c.747-.839 1.421-1.4 2.02-1.684.598-.285 1.407-.427 2.425-.427h1.122c1.708 0 2.561.674 2.561 2.021 0 .419-.022.741-.067.966-.045.224-.173.449-.382.674-.21.224-.51.396-.899.516l-4.49 1.347c-1.616.479-2.777 1.1-3.48 1.864-.705.763-1.057 1.878-1.057 3.346v.943c0 1.976.636 3.472 1.91 4.49 1.273 1.018 2.897 1.528 4.873 1.528h1.885c1.617 0 2.874-.196 3.772-.584.9-.39 1.856-1.168 2.874-2.336l-3.188-3.368c-.688.748-1.242 1.242-1.661 1.482-.42.239-1.003.359-1.751.359h-1.527c-1.347 0-2.021-.523-2.021-1.571 0-.539.082-.943.247-1.213.164-.269.546-.494 1.146-.674l4.49-1.347c1.617-.479 2.777-1.108 3.48-1.886.703-.779 1.056-1.902 1.056-3.368z" fill="currentColor"/></g></symbol><symbol id="merlines3" viewBox="0 0 571.291 567.884"><g clip-path="url(#a)" transform="matrix(1.33333 0 0 -1.33333 0 567.884)"><path d="M76.753 212.93v37.893a24.733 24.733 0 002.379 8.496c1.616 3.313 3.574 5.422 4.248 6.117a23.066 23.066 0 005.948 4.418c.643.334 3.442 1.745 7.476 2.38 1.598.251 4.598.696 8.157 0 5.573-1.092 9.314-4.359 11.045-6.118-.973.22-2.455.286-4.248.17-3.963-.255-6.725-1.708-7.986-2.549-1.343-.894-3.367-2.447-4.93-5.098-1.4-2.378-2.038-4.588-2.208-8.156V212.93z" fill="currentColor"/><path d="M103.771 231.451a24.991 24.991 0 00-.34 4.106v14.246a9.76 9.76 0 001.36 4.758c1.483 2.495 3.651 3.571 4.417 3.91 2.482 1.093 4.68.81 5.608.678 1.031-.146 3.05-.46 4.928-2.039.298-.25 1.684-1.45 2.55-3.569a9.576 9.576 0 00.68-2.888v-14.966c0-2.093.442-4.167 1.337-6.06l.021-.045c1.495-3.142 3.483-5.079 4.248-5.777 1.29-1.178 3.89-3.493 7.987-4.249a14.86 14.86 0 016.117.17 25.925 25.925 0 00-3.738-2.719c-2.16-1.292-7.419-4.34-14.444-3.738-7.586.651-12.556 5.161-14.444 7.137-4.025 4.214-5.77 8.845-6.287 11.045" fill="currentColor"/><path d="M130.11 236.787v14.885c.093 1.64.418 4.078 1.528 6.798 1.862 4.56 4.822 7.197 6.118 8.326 4.49 3.91 9.177 5.013 10.365 5.267 1.007.216 5.41 1.086 10.876-.339 5.148-1.342 8.623-4.038 10.365-5.608-.998.155-2.405.29-4.077.17-4.046-.288-6.868-1.859-7.477-2.209-3.302-1.899-5.053-4.414-5.607-5.268-.582-.896-1.754-2.74-2.21-5.438a13.322 13.322 0 01-.17-2.888l-.17-14.784c.009-.942-.1-3.29-1.7-5.437-2.358-3.169-6.147-3.465-7.475-3.569-1.362-.106-4.831-.22-7.477 2.38-1.47 1.442-2.17 2.982-2.38 3.907a14.445 14.445 0 00-.51 3.807" fill="currentColor"/><path d="M156.448 213.27v35.492c0 2.202.616 4.374 1.846 6.2.062.093.127.186.193.28.603.841 1.538 2.12 3.23 3.058 2.797 1.552 5.632 1.042 6.626.85.986-.193 3.197-.654 5.098-2.549 1.835-1.83 2.333-3.952 2.55-4.929.34-1.546.168-2.718.168-3.738V213.27zM218.782 213.362h-5.434v12.305c0 2.336-.165 3.757-.494 4.267-.36.568-1.198.853-2.514.853h-.315c-1.318 0-2.156-.285-2.515-.853-.33-.51-.494-1.931-.494-4.267v-12.305h-5.434v12.305c0 2.336-.165 3.757-.494 4.267-.36.568-1.198.853-2.515.853h-.314c-1.318 0-2.156-.285-2.516-.853-.33-.51-.493-1.931-.493-4.267v-12.305h-5.434v13.204c0 2.933.359 4.969 1.077 6.107 1.078 1.707 3.204 2.56 6.378 2.56h2.425c1.167 0 2.095-.142 2.784-.427.688-.285 1.302-.771 1.842-1.46 1.137 1.258 2.709 1.887 4.715 1.887h2.29c3.174 0 5.3-.853 6.377-2.56.719-1.138 1.078-3.16 1.078-6.063zM234.68 226.43v1.302c0 2.036-.975 3.054-2.92 3.054h-.449c-1.348 0-2.23-.389-2.65-1.168-.299-.509-.494-1.69-.584-3.547h6.288c.21 0 .314.12.314.36m5.614-9.926c-.928-1.228-1.976-2.104-3.144-2.627-1.167-.524-2.635-.786-4.4-.786h-2.157c-2.575 0-4.49.63-5.748 1.886-.898.868-1.519 1.991-1.864 3.368-.344 1.377-.516 3.308-.516 5.793 0 2.485.172 4.424.516 5.816.345 1.392.966 2.522 1.864 3.391 1.258 1.257 3.173 1.886 5.748 1.886h1.752c2.335 0 4.206-.599 5.613-1.796 1.408-1.198 2.112-3.025 2.112-5.479v-2.066c0-1.347-.292-2.343-.876-2.986-.584-.645-1.656-.966-3.21-.966h-7.906c.09-1.527.3-2.605.63-3.234.418-.778 1.317-1.167 2.694-1.167h1.347c1.676 0 3.114.688 4.311 2.065zM254.529 230.786h-2.155c-1.318 0-2.156-.285-2.515-.853-.33-.51-.494-1.93-.494-4.267v-12.305h-5.435v13.204c0 2.933.36 4.97 1.078 6.107 1.079 1.707 3.204 2.56 6.377 2.56h3.144zM265.801 213.362h-1.796c-2.366 0-4.058.479-5.075 1.437-1.019.958-1.527 2.544-1.527 4.76v26.632h5.434v-24.97c0-1.437.12-2.335.36-2.694.33-.48.927-.72 1.795-.72h.81zM274.964 213.362h-5.435v21.512h5.435zm-.629 29.146c.568-.569.853-1.273.853-2.111 0-.839-.285-1.549-.853-2.133-.57-.584-1.274-.876-2.112-.876-.838 0-1.549.292-2.133.876-.583.584-.875 1.294-.875 2.133 0 .838.292 1.542.875 2.111.584.568 1.295.853 2.133.853.838 0 1.542-.285 2.112-.853M297.327 213.362h-5.434v12.305c0 2.336-.165 3.757-.494 4.267-.36.568-1.197.853-2.514.853h-.584c-1.318 0-2.156-.285-2.515-.853-.33-.51-.494-1.931-.494-4.267v-12.305h-5.435v13.204c0 2.933.36 4.969 1.078 6.107 1.079 1.707 3.204 2.56 6.377 2.56h2.56c3.174 0 5.3-.853 6.378-2.56.719-1.138 1.077-3.16 1.077-6.063zM313.225 226.43v1.302c0 2.036-.974 3.054-2.919 3.054h-.449c-1.348 0-2.23-.389-2.65-1.168-.299-.509-.494-1.69-.584-3.547h6.288c.21 0 .314.12.314.36m5.614-9.926c-.928-1.228-1.976-2.104-3.144-2.627-1.167-.524-2.635-.786-4.4-.786h-2.157c-2.575 0-4.49.63-5.748 1.886-.898.868-1.519 1.991-1.864 3.368-.344 1.377-.516 3.308-.516 5.793 0 2.485.172 4.424.516 5.816.345 1.392.966 2.522 1.864 3.391 1.258 1.257 3.173 1.886 5.748 1.886h1.752c2.335 0 4.206-.599 5.613-1.796 1.408-1.198 2.112-3.025 2.112-5.479v-2.066c0-1.347-.292-2.343-.876-2.986-.584-.645-1.656-.966-3.21-.966h-7.906c.09-1.527.3-2.605.63-3.234.418-.778 1.317-1.167 2.694-1.167h1.347c1.676 0 3.114.688 4.311 2.065zM337.79 219.2c0-1.857-.644-3.339-1.93-4.446-1.288-1.108-3.204-1.662-5.75-1.662h-1.256c-1.796 0-3.173.195-4.131.584-.96.389-2.022 1.212-3.19 2.47l2.92 3.503c.748-.839 1.422-1.4 2.02-1.684.599-.285 1.408-.427 2.426-.427h1.122c1.708 0 2.56.674 2.56 2.021 0 .419-.021.741-.066.966-.045.224-.173.449-.382.674-.21.224-.51.396-.9.516l-4.49 1.347c-1.616.479-2.777 1.1-3.48 1.864-.704.763-1.056 1.878-1.056 3.346v.943c0 1.976.636 3.472 1.909 4.49 1.273 1.018 2.897 1.528 4.873 1.528h1.886c1.617 0 2.874-.196 3.772-.584.899-.39 1.856-1.168 2.874-2.336l-3.188-3.368c-.69.748-1.243 1.242-1.662 1.482-.42.239-1.003.359-1.751.359h-1.527c-1.347 0-2.021-.523-2.021-1.571 0-.539.082-.943.247-1.213.164-.269.546-.494 1.146-.674l4.49-1.347c1.617-.479 2.777-1.108 3.48-1.886.703-.779 1.056-1.902 1.056-3.368z" fill="currentColor"/></g></symbol></svg>