<?xml version="1.0" standalone="no"?>
<!DOCTYPE svg PUBLIC "-//W3C//DTD SVG 20010904//EN"
 "http://www.w3.org/TR/2001/REC-SVG-20010904/DTD/svg10.dtd">
<svg version="1.0" xmlns="http://www.w3.org/2000/svg"
 width="400.000000pt" height="400.000000pt" viewBox="0 0 400.000000 400.000000"
 preserveAspectRatio="xMidYMid meet">
<metadata>
Created by potrace 1.11, written by Peter Selinger 2001-2013
</metadata>
<g transform="translate(0.000000,400.000000) scale(0.100000,-0.100000)"
fill="#000000" stroke="none">
<path d="M1780 3989 c-741 -83 -1380 -577 -1648 -1272 -43 -110 -92 -293 -113
-422 -21 -121 -18 -495 4 -615 78 -424 255 -777 535 -1064 238 -244 494 -407
802 -510 506 -168 1032 -136 1508 94 206 99 355 205 525 370 174 168 294 334
403 555 340 692 248 1516 -236 2125 -77 96 -245 263 -335 331 -296 226 -650
368 -1017 408 -111 13 -318 12 -428 0z m-440 -1071 c75 -14 182 -65 260 -124
l65 -49 -101 -6 c-154 -10 -251 -48 -346 -137 -57 -54 -101 -119 -130 -198
-22 -58 -23 -65 -26 -701 l-3 -643 -310 0 -310 0 3 638 3 637 24 70 c126 379
479 587 871 513z m1705 -18 c85 -27 151 -60 230 -114 l60 -41 -90 -6 c-90 -6
-183 -28 -240 -56 -102 -52 -204 -164 -246 -271 -21 -54 -23 -76 -29 -377 -6
-307 -7 -322 -29 -373 -51 -113 -156 -168 -310 -160 -100 5 -157 30 -210 95
-58 70 -64 102 -68 393 -4 216 -2 283 11 360 47 268 252 486 530 561 98 27
290 21 391 -11z m-1393 -391 c103 -22 168 -73 210 -164 22 -48 23 -63 28 -360
6 -338 7 -345 74 -460 38 -65 146 -167 216 -204 76 -40 187 -65 260 -56 l55 6
-35 -31 c-48 -41 -221 -126 -295 -144 -337 -83 -667 86 -829 423 -54 112 -57
146 -54 483 l3 303 30 54 c31 57 77 100 135 128 70 33 122 39 202 22z m1730
-17 c64 -28 113 -76 145 -140 l28 -57 3 -607 3 -608 -311 0 -311 0 3 598 3
597 33 67 c39 79 104 142 171 163 60 19 175 13 233 -13z"/>
</g>
</svg>
